<?xml version="1.0" encoding="utf-8"?>
<!-- Generator: Adobe Illustrator 21.1.0, SVG Export Plug-In . SVG Version: 6.00 Build 0)  -->
<svg version="1.1" id="Слой_1" xmlns="http://www.w3.org/2000/svg" xmlns:xlink="http://www.w3.org/1999/xlink" x="0px" y="0px"
	 viewBox="0 0 379 44.8" style="enable-background:new 0 0 379 44.8;" xml:space="preserve">
<style type="text/css">
	.st0{fill:#FF5F00;}
	.st1{fill:#EB001B;}
	.st2{fill:#F79E1B;}
	.st3{fill:#FF5611;}
	.st4{fill:#053075;}
	.st5{fill:#F59313;}
	.st6{fill:#0C67B9;}
	.st7{fill:#FC5B00;}
</style>
<path class="st0" d="M31.8,12H18.2v24.3h13.5V12z"/>
<path class="st1" d="M19.1,24.1c0-4.9,2.3-9.3,5.9-12.1c-2.6-2.1-5.9-3.3-9.5-3.3C6.9,8.7,0,15.6,0,24.1c0,8.5,6.9,15.5,15.5,15.5
	c3.6,0,6.9-1.2,9.5-3.3C21.4,33.5,19.1,29.1,19.1,24.1z"/>
<path class="st2" d="M50,24.1c0,8.5-6.9,15.5-15.5,15.5c-3.6,0-6.9-1.2-9.5-3.3c3.6-2.8,5.9-7.2,5.9-12.1S28.6,14.8,25,12
	c2.6-2.1,5.9-3.3,9.5-3.3C43.1,8.7,50,15.7,50,24.1z"/>
<path class="st3" d="M107.4,0.5L87.5,11.8c0,0-2,1.4-2.1,3.3c-0.1,1.9,0,20.8,0,20.8s0.9,3,3.6,3c2.7,0,27.4,0,27.4,0
	c0.4,0,0.8-0.1,1.1-0.2c0.4-0.1,0.7-0.4,1-0.6c0.3-0.3,0.5-0.6,0.6-1c0.1-0.4,0.2-0.7,0.2-1.1V15.7c0,0-0.5-2.4-2.5-2.4h-2.6v12.8
	c0,0,0.3,3-3.6,4.2c-3.9,1.2-18.7,5.3-18.7,5.3s-1.7,0.4-1.6-0.9s0.4-1,3.1-2.1c2.7-1.1,14.8-5.9,14.8-5.9c0.9-0.4,1.6-1.1,2.1-2
	s0.8-1.8,0.7-2.8V2.6C111.1,2.6,111.7-1.3,107.4,0.5z M104.3,11.3c0,0,1.3-0.2,1.4,1.8s-2.4,3.2-2.7,3.3s-2,0.5-1.9-1.6
	S103.3,11.1,104.3,11.3L104.3,11.3z"/>
<path class="st4" d="M173.7,28.7l8-19.9h8.5L177.5,38H169l-7.7-27.5l6.8-0.1l3.6,9.6L173.7,28.7z"/>
<path class="st4" d="M193.5,8.9h8.2L196.5,38h-8L193.5,8.9z"/>
<path class="st4" d="M224.8,16l1.2-6.2c0,0-12.2-4.3-18.8,2.8c-6.5,7.1,2,12,3,12.5c1.1,0.5,6.8,2.1,5.9,5.2s-8.2,2.3-11.3,1
	s-2.1-0.9-2.1-0.9l-1.1,6.5c0,0,8.1,3.1,15.4,0.6c7.3-2.5,7.5-7.2,7.6-8.8c0.1-1.5-0.5-5.5-6.7-8c-6.2-2.5-5.9-5.7-0.5-6.2
	C223,13.9,224.8,16,224.8,16z"/>
<path class="st4" d="M246.8,8.9h-6.1c-4.2,0-4.8,3.3-4.8,3.3L224.2,38h8.5l1.7-4.4h10.6l0.9,4.4h7.4L246.8,8.9z M236.6,27.7
	l4.4-10.8l2.6,10.8H236.6z"/>
<path class="st5" d="M153.4,9l-0.2,0.6c0,0,6.1,1.2,9.8,3.9c3.7,2.7,4.9,3.7,7,6.4c1.1,1.4,2.1,3,2.7,4.8L170,11.7
	c-0.2-0.8-0.7-1.5-1.4-2c-0.7-0.5-1.5-0.7-2.4-0.7C163.1,9,153.4,9,153.4,9z"/>
<path class="st6" d="M312.1,25.1l-1.9-2l2-1.9l1.9,2L312.1,25.1z M307.5,16.8l2-1.9l1.9,2.2l-2,1.8L307.5,16.8z M304.8,10.6l2.2-1.9
	l1.9,2.2l-2,1.9L304.8,10.6z M301.3,6.1l-4.2,3.7L294.8,7l-7.7,6.9l4.9,5.3l-1.9,1.8l4.9,5.4l-1.9,1.6l6.9,7.7L304,32l3.4,3.9
	c-2.5,2-5.5,3.2-8.6,3.7c-3.2,0.4-6.4,0-9.3-1.3c-2.9-1.3-5.4-3.3-7.3-5.9c-1.8-2.6-2.9-5.7-3.2-8.8s0.4-6.4,1.8-9.2
	c1.4-2.8,3.6-5.2,6.3-6.9c2.7-1.7,5.8-2.6,9-2.7c3.2-0.1,6.3,0.8,9.1,2.4l-1.5,1.4L301.3,6.1z M306.3,28.1l-2.8-3.1l3.2-2.8l2.8,3.3
	L306.3,28.1z M306.8,18.7l-3.2,2.8l-2.8-3.3l3.2-2.8L306.8,18.7z M303.9,12.5l-3.1,2.7l-2.8-3.1l3.2-2.8L303.9,12.5z M294.5,10.3
	l3.8,4.2l-4.2,3.8l-3.9-4.2L294.5,10.3z M304.1,28.9l-4.1,3.7l-3.8-4.1l4.2-3.8L304.1,28.9z M297.5,17.4l3.8,4.3l-4.2,3.7l-3.8-4.1
	L297.5,17.4z M309.3,28.5l2.8,3.1l-3,2.8l-2.8-3.3L309.3,28.5z"/>
<path class="st7" d="M368.3,34c0-0.1,0-0.2,0.1-0.4c0-0.1,0.1-0.2,0.2-0.3c0.1-0.1,0.2-0.1,0.3-0.2c0.1,0,0.2,0,0.4,0
	c1,0,1.4,1.7,0.7,2.1c-0.2,0.1-0.4,0.1-0.6,0.1c-0.2,0-0.4-0.1-0.6-0.2s-0.3-0.3-0.4-0.5C368.4,34.4,368.3,34.2,368.3,34L368.3,34z
	 M371.8,33c-0.4-0.9,0.1-1,0.1-1c0.3-0.2,0.8,1,0.7,1.5C372.6,34.1,372.2,33.9,371.8,33z M373.1,32.8c-1.1-5.3-5.7-5.2-5.7-5.2
	c0.7-0.1,1.4-0.2,2.1-0.1c0.7,0.2,1.3,0.5,1.9,1c0.3-1.5,0.5-3.1,0.5-4.7c-0.1-2.1-0.7-4.2-1.7-6.1c-0.7-1.3-4.5-8.4-12.5-8.5
	c-8-0.1-12.5,9.5-8.8,17.9c3.8,8.4,12.6,8.4,12.6,8.4c-0.2-0.6-0.3-1.1-0.4-1.7c0-0.2,0-0.4,0-0.6c0-0.2,0.1-0.4,0.2-0.5
	c0.3,0.6,0.6,1.2,1.1,1.7c1.3,1.4,3.1,2.4,5,2.6c2.5,0.4,5.1,0.5,8.2,2.9c3.1,2.4,3.4,4.9,3.4,4.9c-0.9-1.6-2.1-2.9-3.6-3.9
	c-1.5-1-3.2-1.7-5-2c-6.3-1.1-4.4,0.9-10.8,0.8c-3.8-0.1-7.4-1.2-10.6-3.4c-1.9-1.4-3.4-3.1-4.5-5.2c-1.1-2.1-1.6-4.3-1.7-6.7
	c-0.1-3.3,0.7-6.5,2.2-9.4c1.6-2.9,3.9-5.3,6.7-6.9c2.2-1.3,4.7-2,7.3-2.2c2.6-0.2,5.2,0.2,7.6,1c4.6,1.7,10.2,7.3,10,14.9
	C376.7,29.4,373.1,32.8,373.1,32.8L373.1,32.8z"/>
</svg>
