<svg xmlns="http://www.w3.org/2000/svg" width="31.89" height="26.285" viewBox="0 0 31.89 26.285">
  <path id="like" d="M4486.406,59.554c.664-.592,1.31-1.215,2-1.779a8.475,8.475,0,0,1,13.707,4.363,9.857,9.857,0,0,1-1.137,7.661,24.647,24.647,0,0,1-4.692,5.721,52.128,52.128,0,0,1-7.516,5.791,3.835,3.835,0,0,1-4.418.049,48.505,48.505,0,0,1-8.853-7.077,19.156,19.156,0,0,1-4.04-5.7,9.045,9.045,0,0,1,1.156-9.722,8.349,8.349,0,0,1,11.166-1.7,11.656,11.656,0,0,1,1.453,1.149C4485.69,58.732,4486.087,59.212,4486.406,59.554Zm14.237,5.15c-.066-.54-.106-1.085-.2-1.62a6.625,6.625,0,0,0-8.657-5.123,7.9,7.9,0,0,0-4.311,3.675,1.014,1.014,0,0,1-1.909-.006,8.286,8.286,0,0,0-1.984-2.355,6.692,6.692,0,0,0-8.986.135,7.423,7.423,0,0,0-1.611,8.072,16.421,16.421,0,0,0,3.343,4.992,46.671,46.671,0,0,0,8.859,7.242,2.175,2.175,0,0,0,2.676-.009c1.885-1.368,3.8-2.7,5.611-4.162a24.987,24.987,0,0,0,5.488-5.945A9.316,9.316,0,0,0,4500.643,64.7Z" transform="translate(-4470.559 -55.751)" fill="#2a7d5a"/>
</svg>
