<svg xmlns="http://www.w3.org/2000/svg" width="25.386" height="20.931" viewBox="0 0 25.386 20.931">
  <path id="like_orange_fill" d="M3434.26,2027.49c.529-.471,1.044-.967,1.6-1.416a6.747,6.747,0,0,1,10.912,3.474,7.847,7.847,0,0,1-.9,6.1,19.606,19.606,0,0,1-3.736,4.555,41.478,41.478,0,0,1-5.982,4.61,3.052,3.052,0,0,1-3.517.039,38.629,38.629,0,0,1-7.048-5.633,15.223,15.223,0,0,1-3.216-4.538,7.2,7.2,0,0,1,.92-7.739,6.647,6.647,0,0,1,8.888-1.351,9.341,9.341,0,0,1,1.157.915C3433.69,2026.83,3434,2027.22,3434.26,2027.49Zm-9.405-.111C3423.17,2029.066,3426.857,2025.508,3424.855,2027.379Z" transform="translate(-3421.644 -2024.46)" fill="#f18614"/>
</svg>
