<svg xmlns="http://www.w3.org/2000/svg" width="25.018" height="25" viewBox="0 0 25.018 25">
  <g id="obmen" transform="translate(-4271.126 -159.283)">
    <path id="Контур_51" data-name="Контур 51" d="M4291,171.807c0,1.311-.008,2.623.006,3.934a.911.911,0,0,1-.515.884q-3.409,1.948-6.8,3.926a.954.954,0,0,1-1.073,0q-3.354-1.959-6.729-3.882a1.053,1.053,0,0,1-.6-1.044c.017-2.593.012-5.187,0-7.78a.9.9,0,0,1,.5-.867q3.408-1.951,6.8-3.93a.988.988,0,0,1,1.122,0q3.365,1.968,6.753,3.9a.955.955,0,0,1,.539.931C4291,169.185,4291,170.5,4291,171.807Zm-1.4-2.909c-.079.038-.122.054-.161.077q-2.7,1.559-5.4,3.114a.338.338,0,0,0-.177.351q0,3.051,0,6.1c0,.08.012.159.018.242a.434.434,0,0,0,.081-.016q2.752-1.586,5.5-3.177a.336.336,0,0,0,.133-.25C4289.6,173.211,4289.6,171.081,4289.6,168.9Zm-12.87-.008c-.01.092-.02.137-.02.182,0,2.082,0,4.164.008,6.246a.466.466,0,0,0,.218.317q2.643,1.542,5.3,3.064c.061.035.13.058.2.091a.783.783,0,0,0,.02-.109c0-2.1,0-4.2-.007-6.3a.438.438,0,0,0-.205-.294c-.6-.363-1.215-.707-1.823-1.058Zm.707-1.237a.71.71,0,0,0,.093.08q2.736,1.581,5.477,3.154a.369.369,0,0,0,.3,0c.415-.224.819-.467,1.227-.7l.96-.555c-.037-.043-.046-.062-.062-.071q-2.761-1.6-5.526-3.188a.3.3,0,0,0-.253.005C4278.921,166.792,4278.19,167.218,4277.439,167.653Zm3.763-2.173c.132.081.212.132.294.179,1.643.948,3.295,1.88,4.921,2.854a.835.835,0,0,0,1.049-.005c.446-.309.936-.553,1.437-.843-1.893-1.093-3.743-2.162-5.6-3.224a.31.31,0,0,0-.26-.016C4282.444,164.76,4281.847,165.108,4281.2,165.48Z" fill="#2a7d5a"/>
    <path id="Контур_52" data-name="Контур 52" d="M4291.706,179.357c-.36,0-.695.01-1.03,0a.706.706,0,0,1-.723-.949.68.68,0,0,1,.67-.462q1.3-.018,2.6-.006a.7.7,0,0,1,.711.6q.24,1.3.453,2.615a.71.71,0,0,1-.561.819.7.7,0,0,1-.819-.588c-.038-.178-.071-.358-.1-.538s-.055-.336-.086-.531c-.379.349-.726.694-1.1,1.008a12.088,12.088,0,0,1-6.94,2.911,12.223,12.223,0,0,1-10.409-4.043,11.95,11.95,0,0,1-3.131-6.722,12.339,12.339,0,0,1,1.716-8.2.72.72,0,0,1,.759-.412.6.6,0,0,1,.555.511,1.183,1.183,0,0,1-.151.674,11.029,11.029,0,0,0-1.377,3.591,10.877,10.877,0,0,0,2.757,9.706,10.5,10.5,0,0,0,6.513,3.429,10.925,10.925,0,0,0,9.589-3.246c.027-.027.051-.058.075-.088A.574.574,0,0,0,4291.706,179.357Z" fill="#2a7d5a"/>
    <path id="Контур_53" data-name="Контур 53" d="M4276.883,162.995c.391.06.731.1,1.068.165a.71.71,0,0,1,.636.786.73.73,0,0,1-.875.6q-1.215-.171-2.429-.348a.75.75,0,0,1-.735-.857c0-.829,0-1.659,0-2.488a.693.693,0,0,1,.51-.69.676.676,0,0,1,.776.3,1.077,1.077,0,0,1,.1.44c.016.308.007.617.008.925,0,.008.007.016.022.048a2.119,2.119,0,0,0,.185-.11,12.346,12.346,0,0,1,8.239-2.463,12.518,12.518,0,0,1,10.767,17.351.745.745,0,0,1-.534.517.669.669,0,0,1-.683-.214.681.681,0,0,1-.115-.755,11.011,11.011,0,0,0,.757-2.6,11.11,11.11,0,0,0-17.464-10.8C4277.056,162.85,4276.993,162.906,4276.883,162.995Z" fill="#2a7d5a"/>
    <path id="Контур_54" data-name="Контур 54" d="M4280.856,172.543a.746.746,0,0,1-1.033.664c-.6-.305-1.176-.651-1.744-1.007a.648.648,0,0,1-.185-.9.658.658,0,0,1,.868-.293c.6.318,1.194.659,1.765,1.027C4280.681,172.138,4280.749,172.371,4280.856,172.543Z" fill="#2a7d5a"/>
  </g>
</svg>
