<svg xmlns="http://www.w3.org/2000/svg" width="24.824" height="24.827" viewBox="0 0 24.824 24.827">
  <g id="piple" transform="translate(-4420.652 -55.108)">
    <path id="Контур_49" data-name="Контур 49" d="M4443.537,79.935a10.5,10.5,0,0,0-8.871-10.333,10.01,10.01,0,0,0-7.216,1.518,10.192,10.192,0,0,0-4.668,6.941c-.113.616-.129,1.249-.19,1.874h-1.94c.185-5.732,3.1-9.54,8.266-11.771a7.111,7.111,0,0,1-3.015-6.254,6.869,6.869,0,0,1,2.172-4.772,7.181,7.181,0,1,1,9.091,11.059l.358.149a12.28,12.28,0,0,1,7.654,8.887c.132.546.17,1.114.254,1.671a1.24,1.24,0,0,0,.044.159v.872ZM4438.3,62.323a5.23,5.23,0,1,0-5.282,5.189A5.222,5.222,0,0,0,4438.3,62.323Z" fill="#2a7d5a"/>
  </g>
</svg>
