<svg xmlns="http://www.w3.org/2000/svg" width="27.296" height="27.295" viewBox="0 0 27.296 27.295">
  <g id="share" transform="translate(-8061.828 -527.794)">
    <path id="Контур_227" data-name="Контур 227" d="M8079.946,535.775,8071.7,539.9a5.048,5.048,0,0,1,0,3.067l8.256,4.13a5.132,5.132,0,0,1,2.5-1.857,5.056,5.056,0,1,1-3.384,5.429,6.13,6.13,0,0,1,.02-1.45.39.39,0,0,0-.266-.495c-1.742-.86-3.477-1.734-5.215-2.6-.878-.439-1.758-.874-2.631-1.322a.291.291,0,0,0-.409.075,5.049,5.049,0,0,1-8.643-2.491,5.022,5.022,0,0,1,4.277-5.944,4.91,4.91,0,0,1,4.35,1.538c.143.146.235.189.431.091q3.946-1.986,7.9-3.952a.31.31,0,0,0,.208-.41,5,5,0,1,1,.85,2.07Zm-9.975,5.65a3.089,3.089,0,1,0-3.083,3.1A3.1,3.1,0,0,0,8069.971,541.425Zm14.1,5.518a3.089,3.089,0,0,0-.023,6.178,3.089,3.089,0,1,0,.023-6.178Zm-.047-11.018a3.088,3.088,0,1,0-3.04-3.135A3.1,3.1,0,0,0,8084.027,535.925Z" fill="#F18614"/>
  </g>
</svg>
