<svg xmlns="http://www.w3.org/2000/svg" width="18.31" height="18.31" viewBox="0 0 18.31 18.31">
  <g id="whatsapp" transform="translate(-4504.935 -161.992)">
    <path id="Контур_6" data-name="Контур 6" d="M4514.253,161.992a8.97,8.97,0,0,0-8.994,8.925,8.86,8.86,0,0,0,1.233,4.514l-1.544,4.557a.238.238,0,0,0,.225.314.228.228,0,0,0,.072-.012l4.751-1.509a9.062,9.062,0,0,0,4.257,1.061,8.925,8.925,0,1,0,0-17.85Z" fill="#2a7d5a"/>
    <path id="Контур_7" data-name="Контур 7" d="M4518.484,172.513c-.036-.017-1.371-.675-1.608-.76a.923.923,0,0,0-.311-.069.529.529,0,0,0-.45.267c-.133.2-.537.67-.661.811-.017.018-.039.04-.052.04s-.219-.085-.281-.112a7.025,7.025,0,0,1-2.668-2.37.2.2,0,0,1-.023-.053.458.458,0,0,1,.079-.092c.072-.072.151-.167.227-.258.036-.044.073-.087.108-.128a1.435,1.435,0,0,0,.217-.345l.03-.06a.626.626,0,0,0-.018-.586c-.032-.063-.6-1.423-.655-1.566-.144-.345-.335-.5-.6-.5l-.1,0a3.19,3.19,0,0,0-1.11.285,2.324,2.324,0,0,0-.862,1.977,4.262,4.262,0,0,0,.923,2.345l.038.055a8.691,8.691,0,0,0,3.73,3.238,6.052,6.052,0,0,0,2.253.576h0a3.62,3.62,0,0,0,.367-.021l.065-.007a2.366,2.366,0,0,0,1.651-1.168,1.847,1.847,0,0,0,.106-1.216A.849.849,0,0,0,4518.484,172.513Z" fill="#fff"/>
  </g>
</svg>
