<svg xmlns="http://www.w3.org/2000/svg" width="21.996" height="25" viewBox="0 0 21.996 25">
  <g id="box" transform="translate(-4107.633 -159.777)">
    <path id="Контур_50" data-name="Контур 50" d="M4129.621,172.316c0,1.927,0,3.854,0,5.782a.785.785,0,0,1-.441.763q-5.01,2.864-10.008,5.75a.964.964,0,0,1-1.079,0q-5-2.895-10.005-5.765a.82.82,0,0,1-.46-.789q.011-5.781,0-11.563a.829.829,0,0,1,.476-.8q5-2.859,9.98-5.748a.964.964,0,0,1,1.08,0q4.964,2.886,9.941,5.747a.918.918,0,0,1,.519.907C4129.611,168.5,4129.621,170.409,4129.621,172.316ZM4109,167.5c-.012.117-.024.176-.024.235q0,4.971-.006,9.942a.36.36,0,0,0,.229.347q4.25,2.442,8.5,4.889c.072.041.149.073.247.121.006-.107.013-.167.013-.228q0-4.956.007-9.911a.4.4,0,0,0-.265-.39q-3.376-1.941-6.751-3.885Zm10.256,15.556c.132-.07.2-.1.272-.145q4.235-2.437,8.471-4.871a.45.45,0,0,0,.242-.465q-.008-4.848,0-9.695v-.37c-.128.065-.209.1-.285.144-.879.513-1.755,1.031-2.639,1.535a.405.405,0,0,0-.234.407c.009,1.7.006,3.4,0,5.107a1.252,1.252,0,0,1-.066.448.6.6,0,0,1-.6.4.6.6,0,0,1-.581-.42,1.237,1.237,0,0,1-.043-.422q0-2.126,0-4.251v-.376c-.156.086-.26.142-.363.2-1.291.735-2.578,1.478-3.875,2.2a.509.509,0,0,0-.306.519q.013,4.832.006,9.664Zm-9.617-16.663c.066.045.09.064.116.079q4.326,2.493,8.649,4.989a.361.361,0,0,0,.416-.006q2.043-1.2,4.091-2.381c.067-.039.127-.089.206-.145-.084-.051-.143-.09-.205-.125q-4.274-2.463-8.545-4.931a.381.381,0,0,0-.44.009q-2.027,1.188-4.064,2.367C4109.795,166.284,4109.731,166.33,4109.639,166.389Zm5.82-3.39c.077.056.107.082.141.1q4.324,2.491,8.646,4.986a.358.358,0,0,0,.417-.027c.876-.518,1.756-1.029,2.634-1.544.089-.053.175-.112.265-.169a.424.424,0,0,0-.041-.044q-4.389-2.533-8.781-5.063a.284.284,0,0,0-.243-.007C4117.493,161.809,4116.494,162.4,4115.459,163Z" fill="#2a7d5a"/>
  </g>
</svg>
