<svg xmlns="http://www.w3.org/2000/svg" width="50.197" height="50.199" viewBox="0 0 50.197 50.199">
  <g id="logo_mini" transform="translate(-203.927 -97)">
    <g id="Сгруппировать_22" data-name="Сгруппировать 22" transform="translate(-3609.149 68.147)">
      <path id="Контур_19" data-name="Контур 19" d="M3860.648,52.344a11.863,11.863,0,0,1-2.073-1.449c-.672-.636-1.36-1.322-2.046-2.038-.479-.5-1.083-1.116-1.768-1.728a27.645,27.645,0,0,0,0-4.412l-.035-.533c-.041-.641-.083-1.281-.106-1.917,0-.106-.01-.215-.016-.325l-.01-.173a2.908,2.908,0,0,1,.007-.406l.451-2.351-2.3.517a3.02,3.02,0,0,1-.376.006l-.511-.026c-.65-.023-1.3-.066-1.945-.108l-.512-.033a27.11,27.11,0,0,0-4.409,0c-.486-.546-1.043-1.116-1.731-1.772-.7-.671-1.39-1.358-2.036-2.04a11.955,11.955,0,0,1-1.427-2.034l-.115-.192c-.064-.107-.13-.215-.2-.323l-1.333-2.157-1.624,2.666a11.825,11.825,0,0,1-1.43,2.039c-.64.676-1.325,1.362-2.037,2.042-.689.657-1.246,1.227-1.73,1.771a27.128,27.128,0,0,0-4.411,0l-.506.032c-.649.043-1.3.086-1.944.109l-.5.025a2.922,2.922,0,0,1-.4-.006l-2.4-.5.553,2.353a2.691,2.691,0,0,1,0,.366l-.026.516c-.023.66-.067,1.321-.111,1.983l-.03.475a27.116,27.116,0,0,0,0,4.411c-.683.609-1.288,1.224-1.768,1.726-.686.717-1.375,1.4-2.046,2.039a11.859,11.859,0,0,1-2.077,1.451l-2.622,1.611,2.619,1.61a11.843,11.843,0,0,1,2.079,1.452c.673.637,1.362,1.323,2.047,2.039.481.5,1.086,1.118,1.768,1.726a27.156,27.156,0,0,0,0,4.414l.03.471c.044.662.088,1.323.111,1.978l.026.5a2.978,2.978,0,0,1,0,.387l-.534,2.377,2.377-.529a3.206,3.206,0,0,1,.374-.006l.186.01c.114.007.227.013.329.016.652.023,1.3.066,1.949.108l.508.033a26.986,26.986,0,0,0,4.409,0c.484.545,1.041,1.114,1.731,1.773.708.676,1.394,1.363,2.036,2.041a11.779,11.779,0,0,1,1.431,2.041l1.623,2.655,1.331-2.146c.068-.109.134-.217.187-.307l.125-.208a11.878,11.878,0,0,1,1.427-2.034c.65-.686,1.335-1.373,2.038-2.042.687-.656,1.244-1.226,1.73-1.772a27.129,27.129,0,0,0,4.411,0l.51-.033c.648-.042,1.295-.085,1.936-.108.111,0,.225-.009.339-.016l.164-.009a3.1,3.1,0,0,1,.4.005l2.34.484-.5-2.325a3.029,3.029,0,0,1-.007-.375l.011-.2c.006-.11.012-.219.016-.32.023-.641.065-1.282.106-1.923l.035-.533a27.622,27.622,0,0,0,0-4.41c.685-.612,1.289-1.227,1.768-1.728.686-.716,1.375-1.4,2.047-2.039a12,12,0,0,1,2.076-1.451l2.623-1.611Zm-.639,1.794a13.969,13.969,0,0,0-2.505,1.751q-1.075,1.019-2.1,2.092a25.68,25.68,0,0,1-2.3,2.173.378.378,0,0,1,.022.086,23.206,23.206,0,0,1,.086,4.859c-.053.832-.113,1.665-.144,2.5,0,.164-.017.332-.025.5a3.839,3.839,0,0,0,.025.7c0,.023.008.043.013.066-.023,0-.043-.01-.065-.013a3.782,3.782,0,0,0-.7-.025c-.168.007-.337.02-.5.025-.835.03-1.665.091-2.5.143a23.209,23.209,0,0,1-4.859-.085.387.387,0,0,1-.085-.023,25,25,0,0,1-2.173,2.3q-1.072,1.023-2.093,2.1a14.218,14.218,0,0,0-1.753,2.5q-.087.147-.179.294c-.06-.1-.12-.2-.178-.294a14.22,14.22,0,0,0-1.753-2.5q-1.018-1.076-2.093-2.1a25.03,25.03,0,0,1-2.173-2.3.391.391,0,0,1-.085.023,23.211,23.211,0,0,1-4.859.085c-.833-.052-1.663-.113-2.5-.143-.164,0-.332-.018-.5-.025a3.776,3.776,0,0,0-.7.025c-.022,0-.042.008-.065.013a.521.521,0,0,0,.012-.066,3.752,3.752,0,0,0,.026-.7c-.008-.171-.021-.339-.026-.5-.03-.832-.09-1.665-.143-2.5a23.223,23.223,0,0,1,.086-4.859.378.378,0,0,1,.022-.086,25.647,25.647,0,0,1-2.3-2.173q-1.026-1.071-2.1-2.092a13.959,13.959,0,0,0-2.5-1.751l-.3-.181.3-.181a13.959,13.959,0,0,0,2.5-1.751q1.076-1.019,2.1-2.092a25.648,25.648,0,0,1,2.3-2.173.378.378,0,0,1-.022-.086,23.224,23.224,0,0,1-.086-4.859c.053-.833.113-1.665.143-2.5.005-.163.018-.332.026-.5a3.744,3.744,0,0,0-.026-.7.521.521,0,0,0-.012-.066c.023.005.043.01.065.013a3.775,3.775,0,0,0,.7.025c.169-.007.337-.02.5-.025.835-.03,1.665-.091,2.5-.143a23.212,23.212,0,0,1,4.859.085.391.391,0,0,1,.085.023,25.03,25.03,0,0,1,2.173-2.3q1.073-1.023,2.093-2.1a14.22,14.22,0,0,0,1.753-2.5c.058-.1.118-.2.178-.294q.092.147.179.294a14.218,14.218,0,0,0,1.753,2.5q1.018,1.076,2.093,2.1a25,25,0,0,1,2.173,2.3.387.387,0,0,1,.085-.023,23.21,23.21,0,0,1,4.859-.085c.833.052,1.663.113,2.5.143.163.005.332.018.5.025a3.781,3.781,0,0,0,.7-.025c.022,0,.042-.008.065-.013-.005.023-.01.043-.013.066a3.831,3.831,0,0,0-.025.7c.008.171.02.34.025.5.031.833.091,1.665.144,2.5a23.207,23.207,0,0,1-.086,4.859.378.378,0,0,1-.022.086,25.681,25.681,0,0,1,2.3,2.173q1.026,1.071,2.1,2.092a13.969,13.969,0,0,0,2.505,1.751l.3.181Z" fill="#f18614"/>
      <path id="Контур_20" data-name="Контур 20" d="M3857.5,52.025q-1.075-1.019-2.1-2.092a25.681,25.681,0,0,0-2.3-2.173.378.378,0,0,0,.022-.086,23.207,23.207,0,0,0,.086-4.859c-.053-.833-.113-1.665-.144-2.5,0-.163-.017-.332-.025-.5a3.831,3.831,0,0,1,.025-.7c0-.023.008-.043.013-.066-.023.005-.043.01-.065.013a3.781,3.781,0,0,1-.7.025c-.168-.007-.337-.02-.5-.025-.835-.03-1.665-.091-2.5-.143a23.21,23.21,0,0,0-4.859.085.387.387,0,0,0-.085.023,25,25,0,0,0-2.173-2.3q-1.072-1.023-2.093-2.1a14.218,14.218,0,0,1-1.753-2.5q-.087-.147-.179-.294c-.06.1-.12.2-.178.294a14.22,14.22,0,0,1-1.753,2.5q-1.018,1.076-2.093,2.1a25.03,25.03,0,0,0-2.173,2.3.391.391,0,0,0-.085-.023,23.212,23.212,0,0,0-4.859-.085c-.833.052-1.663.113-2.5.143-.164.005-.332.018-.5.025a3.775,3.775,0,0,1-.7-.025c-.022,0-.042-.008-.065-.013a.521.521,0,0,1,.012.066,3.744,3.744,0,0,1,.026.7c-.008.171-.021.34-.026.5-.03.833-.09,1.665-.143,2.5a23.224,23.224,0,0,0,.086,4.859.378.378,0,0,0,.022.086,25.648,25.648,0,0,0-2.3,2.173q-1.026,1.071-2.1,2.092a13.959,13.959,0,0,1-2.5,1.751l-.3.181.3.181a13.959,13.959,0,0,1,2.5,1.751q1.076,1.019,2.1,2.092a25.647,25.647,0,0,0,2.3,2.173.378.378,0,0,0-.022.086,23.223,23.223,0,0,0-.086,4.859c.053.832.113,1.665.143,2.5.005.164.018.332.026.5a3.752,3.752,0,0,1-.026.7.521.521,0,0,1-.012.066c.023,0,.043-.01.065-.013a3.776,3.776,0,0,1,.7-.025c.169.007.337.02.5.025.835.03,1.665.091,2.5.143a23.211,23.211,0,0,0,4.859-.085.391.391,0,0,0,.085-.023,25.03,25.03,0,0,0,2.173,2.3q1.073,1.023,2.093,2.1a14.22,14.22,0,0,1,1.753,2.5c.058.1.118.2.178.294q.092-.147.179-.294a14.218,14.218,0,0,1,1.753-2.5q1.018-1.076,2.093-2.1a25,25,0,0,0,2.173-2.3.387.387,0,0,0,.085.023,23.209,23.209,0,0,0,4.859.085c.833-.052,1.663-.113,2.5-.143.163,0,.332-.018.5-.025a3.782,3.782,0,0,1,.7.025c.022,0,.042.008.065.013-.005-.023-.01-.043-.013-.066a3.839,3.839,0,0,1-.025-.7c.008-.171.02-.339.025-.5.031-.832.091-1.665.144-2.5a23.206,23.206,0,0,0-.086-4.859.378.378,0,0,0-.022-.086,25.68,25.68,0,0,0,2.3-2.173q1.026-1.071,2.1-2.092a13.969,13.969,0,0,1,2.505-1.751l.3-.181-.3-.181A13.969,13.969,0,0,1,3857.5,52.025ZM3849.682,39.7c.833.055,1.665.11,2.5.131l.12,0c0,.04,0,.078,0,.118.02.835.075,1.668.128,2.5a24.771,24.771,0,0,1,0,4.787,12.293,12.293,0,0,0-1.364-.868c.011-.31.013-.616.013-.921,0-1.209,0-2.419,0-3.627,0-.251,0-.5-.008-.757-.252-.005-.506-.005-.757-.007-1.21-.005-2.42,0-3.627,0-.307,0-.614,0-.92.01a12.846,12.846,0,0,0-.868-1.363A25.172,25.172,0,0,1,3849.682,39.7Zm-16.5-.923c1.333-1.462,2.916-2.712,4.158-4.256a.891.891,0,1,1,1.665,0c1.242,1.544,2.824,2.794,4.157,4.256a14.033,14.033,0,0,1,1.756,2.334,12.432,12.432,0,0,0-1.5.2,16.663,16.663,0,0,0-1.942-2.3c-.571-.576-1.169-1.125-1.74-1.7-.523-.525-1.034-1.061-1.56-1.582-.525.521-1.036,1.057-1.559,1.582-.571.576-1.169,1.125-1.74,1.7a16.663,16.663,0,0,0-1.942,2.3,12.455,12.455,0,0,0-1.5-.2A14.082,14.082,0,0,1,3833.185,38.776Zm-9.265,3.674c.053-.832.108-1.665.128-2.5,0-.04,0-.078,0-.118l.12,0c.833-.021,1.665-.076,2.5-.131a25.174,25.174,0,0,1,4.786,0,12.848,12.848,0,0,0-.868,1.363c-.307-.01-.613-.012-.92-.01-1.207,0-2.417,0-3.627,0-.252,0-.505,0-.757.007,0,.252,0,.506-.008.757,0,1.208,0,2.418,0,3.627,0,.3,0,.611.013.921a12.29,12.29,0,0,0-1.364.868A24.771,24.771,0,0,1,3823.92,42.45Zm-.926,16.5c-1.461-1.333-2.709-2.913-4.253-4.158a11.2,11.2,0,0,0-1.207-.832,11.209,11.209,0,0,0,1.207-.833c1.544-1.245,2.792-2.824,4.253-4.157a14,14,0,0,1,2.334-1.753,12.625,12.625,0,0,0,.2,1.5,16.477,16.477,0,0,0-2.3,1.94c-.579.573-1.127,1.172-1.7,1.743-.526.523-1.062,1.033-1.58,1.559.518.526,1.054,1.036,1.58,1.559.576.571,1.124,1.17,1.7,1.743a16.4,16.4,0,0,0,2.3,1.939,12.669,12.669,0,0,0-.2,1.5A14,14,0,0,1,3822.994,58.947Zm3.675,9.268c-.833-.055-1.665-.11-2.5-.131l-.12,0c0-.04,0-.078,0-.118-.02-.835-.075-1.668-.128-2.5a24.771,24.771,0,0,1,0-4.787,12.29,12.29,0,0,0,1.364.868c-.011.309-.013.616-.013.921.005,1.209,0,2.419,0,3.626,0,.252,0,.506.008.757.252.006.505.006.757.008,1.21,0,2.42,0,3.627,0,.307,0,.613,0,.92-.011a12.761,12.761,0,0,0,.868,1.364A25.174,25.174,0,0,1,3826.669,68.215Zm16.5.923c-1.333,1.461-2.915,2.712-4.157,4.256a.891.891,0,1,1-1.665,0c-1.242-1.544-2.825-2.795-4.158-4.256a14.083,14.083,0,0,1-1.755-2.334,12.659,12.659,0,0,0,1.5-.2,16.663,16.663,0,0,0,1.942,2.3c.571.576,1.169,1.125,1.74,1.7.523.525,1.034,1.061,1.559,1.582.526-.521,1.037-1.057,1.56-1.582.571-.576,1.169-1.125,1.74-1.7a16.663,16.663,0,0,0,1.942-2.3,12.635,12.635,0,0,0,1.5.2A14.033,14.033,0,0,1,3843.165,69.138Zm9.266-3.674c-.053.832-.108,1.665-.128,2.5,0,.04,0,.078,0,.118l-.12,0c-.833.021-1.665.076-2.5.131a25.171,25.171,0,0,1-4.786,0,12.759,12.759,0,0,0,.868-1.364c.306.011.613.013.92.011,1.207,0,2.417,0,3.627,0,.251,0,.5,0,.757-.008,0-.251,0-.5.008-.757.005-1.207,0-2.417,0-3.626,0-.305,0-.612-.013-.921a12.293,12.293,0,0,0,1.364-.868A24.771,24.771,0,0,1,3852.431,65.464Zm5.179-10.675c-1.544,1.245-2.792,2.825-4.253,4.158a13.981,13.981,0,0,1-2.334,1.753,12.618,12.618,0,0,0-.2-1.5,16.4,16.4,0,0,0,2.3-1.939c.579-.573,1.127-1.172,1.7-1.743.526-.523,1.061-1.033,1.58-1.559-.519-.526-1.054-1.036-1.58-1.559-.576-.571-1.124-1.17-1.7-1.743a16.477,16.477,0,0,0-2.3-1.94,12.574,12.574,0,0,0,.2-1.5,13.981,13.981,0,0,1,2.334,1.753c1.461,1.333,2.709,2.912,4.253,4.157a11.23,11.23,0,0,0,1.207.833A11.221,11.221,0,0,0,3857.61,54.789Z" fill="#2a7d5a"/>
      <g id="Сгруппировать_21" data-name="Сгруппировать 21">
        <path id="Контур_21" data-name="Контур 21" d="M3843.842,56.949a18.927,18.927,0,0,1-1.228-1.675c-.228-.338-.394-.72-.614-1.132a10.66,10.66,0,0,0-1.581,3.592c-.024.1.094.27.189.357.33.3.674.575,1.022.85a.493.493,0,0,1,.143.688c-.08.167-.156.337-.234.506l2.475,1.006c.1-.213.2-.427.3-.638A3.14,3.14,0,0,0,3843.842,56.949Z" fill="#fff"/>
        <path id="Контур_22" data-name="Контур 22" d="M3840.952,61.43c.742.294,1.512.609,2.294.893.07.026.253-.121.308-.228s.1-.2.148-.306l-2.462-1C3841.145,61,3841.051,61.211,3840.952,61.43Z" fill="#f18614"/>
        <path id="Контур_23" data-name="Контур 23" d="M3832.451,62.962a.369.369,0,0,0,.268.226c.906.017,1.813.01,2.783.01-.079-.211-.136-.424-.2-.636h-2.928C3832.4,62.695,3832.422,62.829,3832.451,62.962Z" fill="#f18614"/>
        <path id="Контур_24" data-name="Контур 24" d="M3834.654,58.046a6.03,6.03,0,0,0-2.628,1.973.489.489,0,0,0-.095.339c.092.5.2.991.3,1.486h2.852A14.146,14.146,0,0,1,3834.654,58.046Z" fill="#fff"/>
        <path id="Контур_25" data-name="Контур 25" d="M3827.545,63.2c.716,0,1.382-.017,2.047.007.332.012.451-.083.526-.439.015-.072.04-.135.056-.2h-2.524C3827.616,62.767,3827.58,62.976,3827.545,63.2Z" fill="#f18614"/>
        <path id="Контур_26" data-name="Контур 26" d="M3832.684,50.054a3.544,3.544,0,0,0-.629-2.014c-.191.083-.377.172-.56.269a2.946,2.946,0,0,1,.577,1.745,2.98,2.98,0,0,1-2.977,2.976,2.945,2.945,0,0,1-1.477-.407c-.088.184-.173.37-.252.558a3.521,3.521,0,0,0,1.729.461A3.593,3.593,0,0,0,3832.684,50.054Z" fill="#f18614"/>
        <path id="Контур_27" data-name="Контур 27" d="M3847.962,45.038c-.012-.015-.022-.033-.034-.048a5.217,5.217,0,0,0-2.883-1.752,4.2,4.2,0,0,1,.518,1.053A7.989,7.989,0,0,1,3847.962,45.038Z" fill="#fff"/>
        <path id="Контур_28" data-name="Контур 28" d="M3849.741,55.991c-.211.012-.407.011-.6.009a31.231,31.231,0,0,0,.363-5.492c-1.6-4.927-5.394-4.056-5.557-4.017a.36.36,0,0,1-.446-.329,3.449,3.449,0,0,0-1.637-2.987l-.1.016c-1.778-1.04-4.338-.166-6.486,0,0,1.77-.007,3.469,0,5.168a4.308,4.308,0,0,0,2.391,4c.2.113.419.205.684.334a3.846,3.846,0,0,1-3-.994,4.537,4.537,0,0,1-1.471-4.22,9.256,9.256,0,0,0-1.138.3,4.259,4.259,0,0,1,.662,2.274,4.312,4.312,0,0,1-4.307,4.306,4.246,4.246,0,0,1-2-.5c-.245.661-.455,1.339-.641,2.027-.161.6-.267,1.216-.4,1.824l.091.025.853-1.847c.151.81.256,1.566.438,2.3a11,11,0,0,1,.293,3.653h2.636a6.785,6.785,0,0,1,5.216-4.776,10.732,10.732,0,0,1,1.372-.149,16.173,16.173,0,0,0-.327,4.925h2.783a11.89,11.89,0,0,1,2.989-9.433c.028.042.048.064.06.056a5.683,5.683,0,0,0,4.087,4.077c.126.034.254.058.381.084a24.11,24.11,0,0,1-.261,4.649,1.8,1.8,0,0,0,1.364,1.883l.9-.919c-.685,0-.9-.811-.527-2.379.111-.472.388-1.672.639-3.218a5.014,5.014,0,0,0,1.718-.654C3851.122,55.767,3850.051,55.974,3849.741,55.991Zm-9.3-11.711a14.974,14.974,0,0,0-3.564.19v4.413a2.622,2.622,0,0,0,1.406,2.089.287.287,0,0,1-.129.544.293.293,0,0,1-.128-.03,3.159,3.159,0,0,1-1.723-2.6V44.224a.288.288,0,0,1,.24-.283,16.682,16.682,0,0,1,3.995-.227.287.287,0,0,1-.1.566Zm4.7,3.763a.851.851,0,0,1,.411-.152.306.306,0,0,1,.043,0,.662.662,0,0,1,.539.3,1.143,1.143,0,0,1,.156.563v.018c.009.133.013.266.017.4-.129,0-.258.008-.388.007h-.018a1.063,1.063,0,0,1-.556-.125.692.692,0,0,1-.324-.534.342.342,0,0,1,0-.045A.916.916,0,0,1,3845.143,48.043Zm-1.056,4.273a3.762,3.762,0,0,1,2.685,3.216A5.774,5.774,0,0,1,3844.087,52.316Z" fill="#fff"/>
        <path id="Контур_29" data-name="Контур 29" d="M3836.833,63.2c.866,0,1.7,0,2.532,0a1.411,1.411,0,0,0,.2-.025c-.033-.208-.044-.406-.07-.611h-2.774C3836.754,62.774,3836.788,62.987,3836.833,63.2Z" fill="#f18614"/>
        <path id="Контур_30" data-name="Контур 30" d="M3828.988,50.392a10.794,10.794,0,0,0-1.046,1.594,2.235,2.235,0,0,0,1.153.327,2.262,2.262,0,0,0,2.259-2.259,2.233,2.233,0,0,0-.482-1.378A8.021,8.021,0,0,0,3828.988,50.392Z" fill="#fff"/>
        <path id="Контур_31" data-name="Контур 31" d="M3844.183,45.73a5.256,5.256,0,0,1,5.1,2.571,9.513,9.513,0,0,0-.462-1.731,6.067,6.067,0,0,0-3.565-1.594.359.359,0,0,1-.317-.269,3.608,3.608,0,0,0-.951-1.633,8.264,8.264,0,0,0-1.075-.011A4.2,4.2,0,0,1,3844.183,45.73Z" fill="#f18614"/>
      </g>
    </g>
  </g>
</svg>
