<svg xmlns="http://www.w3.org/2000/svg" width="129.141" height="90.085" viewBox="0 0 129.141 90.085">
  <g id="logo" transform="translate(-3775.162 -28.853)">
    <g id="Сгруппировать_16" data-name="Сгруппировать 16">
      <g id="Сгруппировать_15" data-name="Сгруппировать 15">
        <path id="Контур_8" data-name="Контур 8" d="M3802.492,90.076h-5.2l-.457,2.2a5.569,5.569,0,0,1,2.335,1.548,3.725,3.725,0,0,1,.762,2.434,7.413,7.413,0,0,1-.2,1.675,7.926,7.926,0,0,1-1.461,3.208,12.009,12.009,0,0,1-2.376,2.411,16.358,16.358,0,0,1-2.322,1.485,6.6,6.6,0,0,1-1.168.529q-.222,0-1.067-1.041t-1.366-1.737a10.191,10.191,0,0,0,3.5-.979,13.5,13.5,0,0,0,3.607-2.344A5.779,5.779,0,0,0,3799,96.457a2.653,2.653,0,0,0,.063-.457,1.64,1.64,0,0,0-.87-1.484,4.018,4.018,0,0,0-2.1-.521q-5.22.315-7.546,5.945-.791-.363-1.542-.694t-1.415-.631a4.369,4.369,0,0,1,1.011-2.112q.9-1.15,1.2-1.528,0-.426-.72-.584a5.992,5.992,0,0,0-1.257-.158,5.607,5.607,0,0,0-2.6.679,6.939,6.939,0,0,0-2.182,1.744,4.828,4.828,0,0,0-1.084,2.092,4.016,4.016,0,0,0-.095.852,4.811,4.811,0,0,0,.482,2.044,8.725,8.725,0,0,0,1.139,1.839q.657.805,1.314,1.5a3.5,3.5,0,0,1,.687.852,14.245,14.245,0,0,1-2.822-1.383,10.362,10.362,0,0,1-2.689-2.4,4.972,4.972,0,0,1-1.162-3.153,4.088,4.088,0,0,1,.111-.964,6.168,6.168,0,0,1,1.067-2.395,8.19,8.19,0,0,1,1.922-1.888,9.243,9.243,0,0,1,2.4-1.218,7.9,7.9,0,0,1,2.5-.426,6.115,6.115,0,0,1,2.261.382,8.251,8.251,0,0,1,1.685.884,5.072,5.072,0,0,0,.783.5q1.929-.812,2.894-1.138a9.574,9.574,0,0,1,1.614-.422l.49-2.136h-16.466l.394-1.912H3802.9Z" fill="#2a7d5a"/>
        <path id="Контур_9" data-name="Контур 9" d="M3803.408,105.677l-2.323-1.468,2.623-12.189h2.656Zm5.153-15.6h-6.4l.38-1.912h6.449ZM3808.4,86.5a.931.931,0,0,1-.4.063,1.4,1.4,0,0,1-.442-.063L3807,84.655a5.036,5.036,0,0,0-.325-.869,1.125,1.125,0,0,0-.727-.609l-.956-.285a.887.887,0,0,1-.609-.624q-.031-.379-.079-.9a4.819,4.819,0,0,0-.379-1.328l.095-.363h.648a9.445,9.445,0,0,1,2.386,1.027,1.884,1.884,0,0,1,.791.933,10.8,10.8,0,0,1,.221,1.739,12.25,12.25,0,0,0,.426,2.449A1.834,1.834,0,0,1,3808.4,86.5Z" fill="#2a7d5a"/>
        <path id="Контур_10" data-name="Контур 10" d="M3820.384,97a7.274,7.274,0,0,0,.158-1.265q0-2.529-2.956-2.529a5.571,5.571,0,0,0-3.043,1.075,10.9,10.9,0,0,0-2.908,2.94,11.054,11.054,0,0,0-1.746,4.015l-.965,4.6-2.307-1.359,2.5-11.887h2.718l-.426,1.882q.537-.348,1.375-.9a12.488,12.488,0,0,1,2.047-1.06A6.359,6.359,0,0,1,3817.3,92a4.89,4.89,0,0,1,2.584.7,5.058,5.058,0,0,1,1.849,1.984,5.92,5.92,0,0,1,.688,2.845,8.175,8.175,0,0,1-.49,2.711,11.322,11.322,0,0,1-1.541,2.853,17.635,17.635,0,0,1-2.7,2.892l-2.624-1.912a16.272,16.272,0,0,1,1.32-1.13,18.338,18.338,0,0,0,1.636-1.455,9.224,9.224,0,0,0,1.383-1.865A8.84,8.84,0,0,0,3820.384,97Zm4.884-6.924h-16.992l.38-1.912h16.991Z" fill="#2a7d5a"/>
        <path id="Контур_11" data-name="Контур 11" d="M3826.137,105.677l-2.323-1.468,2.624-12.189h2.655Zm5.153-15.6h-6.4l.38-1.912h6.449Zm-.158-3.572a.931.931,0,0,1-.4.063,1.4,1.4,0,0,1-.442-.063l-.561-1.849a5.036,5.036,0,0,0-.325-.869,1.123,1.123,0,0,0-.727-.609l-.956-.285a.887.887,0,0,1-.609-.624q-.031-.379-.079-.9a4.819,4.819,0,0,0-.379-1.328l.095-.363h.648a9.445,9.445,0,0,1,2.386,1.027,1.873,1.873,0,0,1,.791.933,10.8,10.8,0,0,1,.221,1.739,12.181,12.181,0,0,0,.427,2.449A1.83,1.83,0,0,1,3831.132,86.5Z" fill="#2a7d5a"/>
        <path id="Контур_12" data-name="Контур 12" d="M3842.813,105.677l-2.324-1.468,2.624-12.189h2.656Zm5.153-15.6h-6.4l.38-1.912h6.449Zm-.159-3.572a.927.927,0,0,1-.395.063,1.4,1.4,0,0,1-.442-.063l-.561-1.849a4.975,4.975,0,0,0-.324-.869,1.125,1.125,0,0,0-.728-.609l-.956-.285a.884.884,0,0,1-.608-.624c-.021-.253-.048-.553-.079-.9a4.862,4.862,0,0,0-.379-1.328l.095-.363h.647a9.438,9.438,0,0,1,2.387,1.027,1.874,1.874,0,0,1,.79.933,10.876,10.876,0,0,1,.222,1.739,12.25,12.25,0,0,0,.426,2.449A1.8,1.8,0,0,1,3847.807,86.5Z" fill="#2a7d5a"/>
        <path id="Контур_13" data-name="Контур 13" d="M3859.789,97a7.274,7.274,0,0,0,.158-1.265q0-2.529-2.956-2.529a5.571,5.571,0,0,0-3.043,1.075,10.9,10.9,0,0,0-2.908,2.94,11.054,11.054,0,0,0-1.746,4.015l-.965,4.6-2.307-1.359,2.5-11.887h2.718l-.426,1.882q.537-.348,1.375-.9a12.478,12.478,0,0,1,2.047-1.06,6.359,6.359,0,0,1,2.474-.505,4.89,4.89,0,0,1,2.584.7,5.058,5.058,0,0,1,1.849,1.984,5.906,5.906,0,0,1,.688,2.845,8.169,8.169,0,0,1-.49,2.711,11.313,11.313,0,0,1-1.541,2.853,17.635,17.635,0,0,1-2.7,2.892l-2.624-1.912a16.229,16.229,0,0,1,1.32-1.13,18.338,18.338,0,0,0,1.636-1.455,9.224,9.224,0,0,0,1.383-1.865A8.847,8.847,0,0,0,3859.789,97Zm4.884-6.924h-16.992l.38-1.912h16.991Z" fill="#2a7d5a"/>
        <path id="Контур_14" data-name="Контур 14" d="M3882.613,90.076h-2.07l-3.3,15.427-2.624-1.233.49-2.26a17.542,17.542,0,0,1-2.976,2.474,5.156,5.156,0,0,1-2.769.83,4.668,4.668,0,0,1-2.6-.917,7.676,7.676,0,0,1-2.256-2.4,5.743,5.743,0,0,1-.9-3.027,6.187,6.187,0,0,1,.094-1.043,6.54,6.54,0,0,1,1.258-2.3,10.443,10.443,0,0,1,2.714-2.474,6.286,6.286,0,0,1,3.451-1.058,3.588,3.588,0,0,1,2.017.587A6.138,6.138,0,0,1,3874.6,94q.57.723,1.693,2.309l1.328-6.228h-13.541l.4-1.912h13.57a22.813,22.813,0,0,0,.553-4.078,12.461,12.461,0,0,0-.529-3.47,21.062,21.062,0,0,0-1.779-4.117q0-.411.174-.506h2.972q.522.776.933,1.541a10.068,10.068,0,0,1,.774,2.237,14.206,14.206,0,0,1,.364,3.4,23.035,23.035,0,0,1-.585,5h2.071Zm-7.255,7.187a2.735,2.735,0,0,0-.893-2.051,3.217,3.217,0,0,0-2.315-.852,6.444,6.444,0,0,0-2.063.631,10.36,10.36,0,0,0-2.846,1.862,5.392,5.392,0,0,0-1.73,2.935,5.48,5.48,0,0,0-.095.994,2.833,2.833,0,0,0,.648,1.957,2.092,2.092,0,0,0,1.628.725,5.8,5.8,0,0,0,3.09-1.144,15.212,15.212,0,0,0,3.051-2.643A6.327,6.327,0,0,0,3875.358,97.263Z" fill="#2a7d5a"/>
        <path id="Контур_15" data-name="Контур 15" d="M3883.482,105.677l-2.323-1.468,2.624-12.189h2.655Zm5.154-15.6h-6.4l.38-1.912h6.449Zm-.159-3.572a.931.931,0,0,1-.4.063,1.4,1.4,0,0,1-.442-.063l-.561-1.849a5.052,5.052,0,0,0-.325-.869,1.123,1.123,0,0,0-.727-.609l-.956-.285a.888.888,0,0,1-.609-.624q-.031-.379-.079-.9a4.81,4.81,0,0,0-.379-1.328l.1-.363h.648a9.445,9.445,0,0,1,2.386,1.027,1.873,1.873,0,0,1,.791.933,10.8,10.8,0,0,1,.221,1.739,12.2,12.2,0,0,0,.427,2.449A1.81,1.81,0,0,1,3888.477,86.5Z" fill="#2a7d5a"/>
        <path id="Контур_16" data-name="Контур 16" d="M3903.888,90.076h-10.526l-.522,2.519a.075.075,0,0,1,.079.063.074.074,0,0,0,.079.063,5.893,5.893,0,0,1,1.367-.342,13.251,13.251,0,0,1,2.79-.343,7.007,7.007,0,0,1,2.561.388,2.5,2.5,0,0,1,1.351,1.122,3.735,3.735,0,0,1,.387,1.762,10.325,10.325,0,0,1-.166,1.739q-.165.965-.482,2.339l-1.327,6.244a15.33,15.33,0,0,1-1.415-.688q-.609-.339-.846-.5c0-.411-.021-.626-.063-.648q-.617.317-1.336.664a9.384,9.384,0,0,1-1.8.616,10.583,10.583,0,0,1-2.538.269,6.047,6.047,0,0,1-3.382-.939,2.85,2.85,0,0,1-1.438-2.485,4.973,4.973,0,0,1,.063-.647,4.773,4.773,0,0,1,1.525-2.31,10.564,10.564,0,0,1,3.177-2.019,9.938,9.938,0,0,1,3.912-.8,6.1,6.1,0,0,1,2.023.326,4.122,4.122,0,0,1,1.375.724l.316-1.458a2.86,2.86,0,0,0-.987-1.136,3.931,3.931,0,0,0-1.826-.305,16.56,16.56,0,0,0-2.679.274,15,15,0,0,0-2.158.643q-1.153.431-2.023.713l.221-1.16c.18-.116.353-.239.522-.37s.269-.212.3-.243l.87-4.078h-3.241l.427-1.912H3904.3Zm-5.769,10q0-.519-.743-.906a6.8,6.8,0,0,0-1.659-.59,7.519,7.519,0,0,0-1.154-.205,7.664,7.664,0,0,0-2.64.449,9.848,9.848,0,0,0-2.237,1.142,8.124,8.124,0,0,0-1.58,1.371,1.966,1.966,0,0,0-.577,1.009,1.085,1.085,0,0,0,.8.906,4.877,4.877,0,0,0,1.6.244,11.01,11.01,0,0,0,3.88-.686,12.853,12.853,0,0,0,3.042-1.552Q3898.056,100.392,3898.119,100.076Z" fill="#2a7d5a"/>
      </g>
    </g>
    <g id="Сгруппировать_18" data-name="Сгруппировать 18">
      <g id="Сгруппировать_17" data-name="Сгруппировать 17">
        <path id="Контур_17" data-name="Контур 17" d="M3788.314,113.97h-13.152l.379-1.913h13.152Z" fill="#2a7d5a"/>
      </g>
    </g>
    <g id="Сгруппировать_20" data-name="Сгруппировать 20">
      <g id="Сгруппировать_19" data-name="Сгруппировать 19">
        <path id="Контур_18" data-name="Контур 18" d="M3903.924,113.97h-13.152l.38-1.913H3904.3Z" fill="#2a7d5a"/>
      </g>
    </g>
    <g id="Сгруппировать_22" data-name="Сгруппировать 22">
      <path id="Контур_19" data-name="Контур 19" d="M3860.648,52.344a11.863,11.863,0,0,1-2.073-1.449c-.672-.636-1.36-1.322-2.046-2.038-.479-.5-1.083-1.116-1.768-1.728a27.645,27.645,0,0,0,0-4.412l-.035-.533c-.041-.641-.083-1.281-.106-1.917,0-.106-.01-.215-.016-.325l-.01-.173a2.908,2.908,0,0,1,.007-.406l.451-2.351-2.3.517a3.02,3.02,0,0,1-.376.006l-.511-.026c-.65-.023-1.3-.066-1.945-.108l-.512-.033a27.11,27.11,0,0,0-4.409,0c-.486-.546-1.043-1.116-1.731-1.772-.7-.671-1.39-1.358-2.036-2.04a11.955,11.955,0,0,1-1.427-2.034l-.115-.192c-.064-.107-.13-.215-.2-.323l-1.333-2.157-1.624,2.666a11.825,11.825,0,0,1-1.43,2.039c-.64.676-1.325,1.362-2.037,2.042-.689.657-1.246,1.227-1.73,1.771a27.128,27.128,0,0,0-4.411,0l-.506.032c-.649.043-1.3.086-1.944.109l-.5.025a2.922,2.922,0,0,1-.4-.006l-2.4-.5.553,2.353a2.691,2.691,0,0,1,0,.366l-.026.516c-.023.66-.067,1.321-.111,1.983l-.03.475a27.116,27.116,0,0,0,0,4.411c-.683.609-1.288,1.224-1.768,1.726-.686.717-1.375,1.4-2.046,2.039a11.859,11.859,0,0,1-2.077,1.451l-2.622,1.611,2.619,1.61a11.843,11.843,0,0,1,2.079,1.452c.673.637,1.362,1.323,2.047,2.039.481.5,1.086,1.118,1.768,1.726a27.156,27.156,0,0,0,0,4.414l.03.471c.044.662.088,1.323.111,1.978l.026.5a2.978,2.978,0,0,1,0,.387l-.534,2.377,2.377-.529a3.206,3.206,0,0,1,.374-.006l.186.01c.114.007.227.013.329.016.652.023,1.3.066,1.949.108l.508.033a26.986,26.986,0,0,0,4.409,0c.484.545,1.041,1.114,1.731,1.773.708.676,1.394,1.363,2.036,2.041a11.779,11.779,0,0,1,1.431,2.041l1.623,2.655,1.331-2.146c.068-.109.134-.217.187-.307l.125-.208a11.878,11.878,0,0,1,1.427-2.034c.65-.686,1.335-1.373,2.038-2.042.687-.656,1.244-1.226,1.73-1.772a27.129,27.129,0,0,0,4.411,0l.51-.033c.648-.042,1.295-.085,1.936-.108.111,0,.225-.009.339-.016l.164-.009a3.1,3.1,0,0,1,.4.005l2.34.484-.5-2.325a3.029,3.029,0,0,1-.007-.375l.011-.2c.006-.11.012-.219.016-.32.023-.641.065-1.282.106-1.923l.035-.533a27.622,27.622,0,0,0,0-4.41c.685-.612,1.289-1.227,1.768-1.728.686-.716,1.375-1.4,2.047-2.039a12,12,0,0,1,2.076-1.451l2.623-1.611Zm-.639,1.794a13.969,13.969,0,0,0-2.505,1.751q-1.075,1.019-2.1,2.092a25.68,25.68,0,0,1-2.3,2.173.378.378,0,0,1,.022.086,23.206,23.206,0,0,1,.086,4.859c-.053.832-.113,1.665-.144,2.5,0,.164-.017.332-.025.5a3.839,3.839,0,0,0,.025.7c0,.023.008.043.013.066-.023,0-.043-.01-.065-.013a3.782,3.782,0,0,0-.7-.025c-.168.007-.337.02-.5.025-.835.03-1.665.091-2.5.143a23.209,23.209,0,0,1-4.859-.085.387.387,0,0,1-.085-.023,25,25,0,0,1-2.173,2.3q-1.072,1.023-2.093,2.1a14.218,14.218,0,0,0-1.753,2.5q-.087.147-.179.294c-.06-.1-.12-.2-.178-.294a14.22,14.22,0,0,0-1.753-2.5q-1.018-1.076-2.093-2.1a25.03,25.03,0,0,1-2.173-2.3.391.391,0,0,1-.085.023,23.211,23.211,0,0,1-4.859.085c-.833-.052-1.663-.113-2.5-.143-.164,0-.332-.018-.5-.025a3.776,3.776,0,0,0-.7.025c-.022,0-.042.008-.065.013a.521.521,0,0,0,.012-.066,3.752,3.752,0,0,0,.026-.7c-.008-.171-.021-.339-.026-.5-.03-.832-.09-1.665-.143-2.5a23.223,23.223,0,0,1,.086-4.859.378.378,0,0,1,.022-.086,25.647,25.647,0,0,1-2.3-2.173q-1.026-1.071-2.1-2.092a13.959,13.959,0,0,0-2.5-1.751l-.3-.181.3-.181a13.959,13.959,0,0,0,2.5-1.751q1.076-1.019,2.1-2.092a25.648,25.648,0,0,1,2.3-2.173.378.378,0,0,1-.022-.086,23.224,23.224,0,0,1-.086-4.859c.053-.833.113-1.665.143-2.5.005-.163.018-.332.026-.5a3.744,3.744,0,0,0-.026-.7.521.521,0,0,0-.012-.066c.023.005.043.01.065.013a3.775,3.775,0,0,0,.7.025c.169-.007.337-.02.5-.025.835-.03,1.665-.091,2.5-.143a23.212,23.212,0,0,1,4.859.085.391.391,0,0,1,.085.023,25.03,25.03,0,0,1,2.173-2.3q1.073-1.023,2.093-2.1a14.22,14.22,0,0,0,1.753-2.5c.058-.1.118-.2.178-.294q.092.147.179.294a14.218,14.218,0,0,0,1.753,2.5q1.018,1.076,2.093,2.1a25,25,0,0,1,2.173,2.3.387.387,0,0,1,.085-.023,23.21,23.21,0,0,1,4.859-.085c.833.052,1.663.113,2.5.143.163.005.332.018.5.025a3.781,3.781,0,0,0,.7-.025c.022,0,.042-.008.065-.013-.005.023-.01.043-.013.066a3.831,3.831,0,0,0-.025.7c.008.171.02.34.025.5.031.833.091,1.665.144,2.5a23.207,23.207,0,0,1-.086,4.859.378.378,0,0,1-.022.086,25.681,25.681,0,0,1,2.3,2.173q1.026,1.071,2.1,2.092a13.969,13.969,0,0,0,2.505,1.751l.3.181Z" fill="#f18614"/>
      <path id="Контур_20" data-name="Контур 20" d="M3857.5,52.025q-1.075-1.019-2.1-2.092a25.681,25.681,0,0,0-2.3-2.173.378.378,0,0,0,.022-.086,23.207,23.207,0,0,0,.086-4.859c-.053-.833-.113-1.665-.144-2.5,0-.163-.017-.332-.025-.5a3.831,3.831,0,0,1,.025-.7c0-.023.008-.043.013-.066-.023.005-.043.01-.065.013a3.781,3.781,0,0,1-.7.025c-.168-.007-.337-.02-.5-.025-.835-.03-1.665-.091-2.5-.143a23.21,23.21,0,0,0-4.859.085.387.387,0,0,0-.085.023,25,25,0,0,0-2.173-2.3q-1.072-1.023-2.093-2.1a14.218,14.218,0,0,1-1.753-2.5q-.087-.147-.179-.294c-.06.1-.12.2-.178.294a14.22,14.22,0,0,1-1.753,2.5q-1.018,1.076-2.093,2.1a25.03,25.03,0,0,0-2.173,2.3.391.391,0,0,0-.085-.023,23.212,23.212,0,0,0-4.859-.085c-.833.052-1.663.113-2.5.143-.164.005-.332.018-.5.025a3.775,3.775,0,0,1-.7-.025c-.022,0-.042-.008-.065-.013a.521.521,0,0,1,.012.066,3.744,3.744,0,0,1,.026.7c-.008.171-.021.34-.026.5-.03.833-.09,1.665-.143,2.5a23.224,23.224,0,0,0,.086,4.859.378.378,0,0,0,.022.086,25.648,25.648,0,0,0-2.3,2.173q-1.026,1.071-2.1,2.092a13.959,13.959,0,0,1-2.5,1.751l-.3.181.3.181a13.959,13.959,0,0,1,2.5,1.751q1.076,1.019,2.1,2.092a25.647,25.647,0,0,0,2.3,2.173.378.378,0,0,0-.022.086,23.223,23.223,0,0,0-.086,4.859c.053.832.113,1.665.143,2.5.005.164.018.332.026.5a3.752,3.752,0,0,1-.026.7.521.521,0,0,1-.012.066c.023,0,.043-.01.065-.013a3.776,3.776,0,0,1,.7-.025c.169.007.337.02.5.025.835.03,1.665.091,2.5.143a23.211,23.211,0,0,0,4.859-.085.391.391,0,0,0,.085-.023,25.03,25.03,0,0,0,2.173,2.3q1.073,1.023,2.093,2.1a14.22,14.22,0,0,1,1.753,2.5c.058.1.118.2.178.294q.092-.147.179-.294a14.218,14.218,0,0,1,1.753-2.5q1.018-1.076,2.093-2.1a25,25,0,0,0,2.173-2.3.387.387,0,0,0,.085.023,23.209,23.209,0,0,0,4.859.085c.833-.052,1.663-.113,2.5-.143.163,0,.332-.018.5-.025a3.782,3.782,0,0,1,.7.025c.022,0,.042.008.065.013-.005-.023-.01-.043-.013-.066a3.839,3.839,0,0,1-.025-.7c.008-.171.02-.339.025-.5.031-.832.091-1.665.144-2.5a23.206,23.206,0,0,0-.086-4.859.378.378,0,0,0-.022-.086,25.68,25.68,0,0,0,2.3-2.173q1.026-1.071,2.1-2.092a13.969,13.969,0,0,1,2.505-1.751l.3-.181-.3-.181A13.969,13.969,0,0,1,3857.5,52.025ZM3849.682,39.7c.833.055,1.665.11,2.5.131l.12,0c0,.04,0,.078,0,.118.02.835.075,1.668.128,2.5a24.771,24.771,0,0,1,0,4.787,12.293,12.293,0,0,0-1.364-.868c.011-.31.013-.616.013-.921,0-1.209,0-2.419,0-3.627,0-.251,0-.5-.008-.757-.252-.005-.506-.005-.757-.007-1.21-.005-2.42,0-3.627,0-.307,0-.614,0-.92.01a12.846,12.846,0,0,0-.868-1.363A25.172,25.172,0,0,1,3849.682,39.7Zm-16.5-.923c1.333-1.462,2.916-2.712,4.158-4.256a.891.891,0,1,1,1.665,0c1.242,1.544,2.824,2.794,4.157,4.256a14.033,14.033,0,0,1,1.756,2.334,12.432,12.432,0,0,0-1.5.2,16.663,16.663,0,0,0-1.942-2.3c-.571-.576-1.169-1.125-1.74-1.7-.523-.525-1.034-1.061-1.56-1.582-.525.521-1.036,1.057-1.559,1.582-.571.576-1.169,1.125-1.74,1.7a16.663,16.663,0,0,0-1.942,2.3,12.455,12.455,0,0,0-1.5-.2A14.082,14.082,0,0,1,3833.185,38.776Zm-9.265,3.674c.053-.832.108-1.665.128-2.5,0-.04,0-.078,0-.118l.12,0c.833-.021,1.665-.076,2.5-.131a25.174,25.174,0,0,1,4.786,0,12.848,12.848,0,0,0-.868,1.363c-.307-.01-.613-.012-.92-.01-1.207,0-2.417,0-3.627,0-.252,0-.505,0-.757.007,0,.252,0,.506-.008.757,0,1.208,0,2.418,0,3.627,0,.3,0,.611.013.921a12.29,12.29,0,0,0-1.364.868A24.771,24.771,0,0,1,3823.92,42.45Zm-.926,16.5c-1.461-1.333-2.709-2.913-4.253-4.158a11.2,11.2,0,0,0-1.207-.832,11.209,11.209,0,0,0,1.207-.833c1.544-1.245,2.792-2.824,4.253-4.157a14,14,0,0,1,2.334-1.753,12.625,12.625,0,0,0,.2,1.5,16.477,16.477,0,0,0-2.3,1.94c-.579.573-1.127,1.172-1.7,1.743-.526.523-1.062,1.033-1.58,1.559.518.526,1.054,1.036,1.58,1.559.576.571,1.124,1.17,1.7,1.743a16.4,16.4,0,0,0,2.3,1.939,12.669,12.669,0,0,0-.2,1.5A14,14,0,0,1,3822.994,58.947Zm3.675,9.268c-.833-.055-1.665-.11-2.5-.131l-.12,0c0-.04,0-.078,0-.118-.02-.835-.075-1.668-.128-2.5a24.771,24.771,0,0,1,0-4.787,12.29,12.29,0,0,0,1.364.868c-.011.309-.013.616-.013.921.005,1.209,0,2.419,0,3.626,0,.252,0,.506.008.757.252.006.505.006.757.008,1.21,0,2.42,0,3.627,0,.307,0,.613,0,.92-.011a12.761,12.761,0,0,0,.868,1.364A25.174,25.174,0,0,1,3826.669,68.215Zm16.5.923c-1.333,1.461-2.915,2.712-4.157,4.256a.891.891,0,1,1-1.665,0c-1.242-1.544-2.825-2.795-4.158-4.256a14.083,14.083,0,0,1-1.755-2.334,12.659,12.659,0,0,0,1.5-.2,16.663,16.663,0,0,0,1.942,2.3c.571.576,1.169,1.125,1.74,1.7.523.525,1.034,1.061,1.559,1.582.526-.521,1.037-1.057,1.56-1.582.571-.576,1.169-1.125,1.74-1.7a16.663,16.663,0,0,0,1.942-2.3,12.635,12.635,0,0,0,1.5.2A14.033,14.033,0,0,1,3843.165,69.138Zm9.266-3.674c-.053.832-.108,1.665-.128,2.5,0,.04,0,.078,0,.118l-.12,0c-.833.021-1.665.076-2.5.131a25.171,25.171,0,0,1-4.786,0,12.759,12.759,0,0,0,.868-1.364c.306.011.613.013.92.011,1.207,0,2.417,0,3.627,0,.251,0,.5,0,.757-.008,0-.251,0-.5.008-.757.005-1.207,0-2.417,0-3.626,0-.305,0-.612-.013-.921a12.293,12.293,0,0,0,1.364-.868A24.771,24.771,0,0,1,3852.431,65.464Zm5.179-10.675c-1.544,1.245-2.792,2.825-4.253,4.158a13.981,13.981,0,0,1-2.334,1.753,12.618,12.618,0,0,0-.2-1.5,16.4,16.4,0,0,0,2.3-1.939c.579-.573,1.127-1.172,1.7-1.743.526-.523,1.061-1.033,1.58-1.559-.519-.526-1.054-1.036-1.58-1.559-.576-.571-1.124-1.17-1.7-1.743a16.477,16.477,0,0,0-2.3-1.94,12.574,12.574,0,0,0,.2-1.5,13.981,13.981,0,0,1,2.334,1.753c1.461,1.333,2.709,2.912,4.253,4.157a11.23,11.23,0,0,0,1.207.833A11.221,11.221,0,0,0,3857.61,54.789Z" fill="#2a7d5a"/>
      <g id="Сгруппировать_21" data-name="Сгруппировать 21">
        <path id="Контур_21" data-name="Контур 21" d="M3843.842,56.949a18.927,18.927,0,0,1-1.228-1.675c-.228-.338-.394-.72-.614-1.132a10.66,10.66,0,0,0-1.581,3.592c-.024.1.094.27.189.357.33.3.674.575,1.022.85a.493.493,0,0,1,.143.688c-.08.167-.156.337-.234.506l2.475,1.006c.1-.213.2-.427.3-.638A3.14,3.14,0,0,0,3843.842,56.949Z" fill="#fff"/>
        <path id="Контур_22" data-name="Контур 22" d="M3840.952,61.43c.742.294,1.512.609,2.294.893.07.026.253-.121.308-.228s.1-.2.148-.306l-2.462-1C3841.145,61,3841.051,61.211,3840.952,61.43Z" fill="#f18614"/>
        <path id="Контур_23" data-name="Контур 23" d="M3832.451,62.962a.369.369,0,0,0,.268.226c.906.017,1.813.01,2.783.01-.079-.211-.136-.424-.2-.636h-2.928C3832.4,62.695,3832.422,62.829,3832.451,62.962Z" fill="#f18614"/>
        <path id="Контур_24" data-name="Контур 24" d="M3834.654,58.046a6.03,6.03,0,0,0-2.628,1.973.489.489,0,0,0-.095.339c.092.5.2.991.3,1.486h2.852A14.146,14.146,0,0,1,3834.654,58.046Z" fill="#fff"/>
        <path id="Контур_25" data-name="Контур 25" d="M3827.545,63.2c.716,0,1.382-.017,2.047.007.332.012.451-.083.526-.439.015-.072.04-.135.056-.2h-2.524C3827.616,62.767,3827.58,62.976,3827.545,63.2Z" fill="#f18614"/>
        <path id="Контур_26" data-name="Контур 26" d="M3832.684,50.054a3.544,3.544,0,0,0-.629-2.014c-.191.083-.377.172-.56.269a2.946,2.946,0,0,1,.577,1.745,2.98,2.98,0,0,1-2.977,2.976,2.945,2.945,0,0,1-1.477-.407c-.088.184-.173.37-.252.558a3.521,3.521,0,0,0,1.729.461A3.593,3.593,0,0,0,3832.684,50.054Z" fill="#f18614"/>
        <path id="Контур_27" data-name="Контур 27" d="M3847.962,45.038c-.012-.015-.022-.033-.034-.048a5.217,5.217,0,0,0-2.883-1.752,4.2,4.2,0,0,1,.518,1.053A7.989,7.989,0,0,1,3847.962,45.038Z" fill="#fff"/>
        <path id="Контур_28" data-name="Контур 28" d="M3849.741,55.991c-.211.012-.407.011-.6.009a31.231,31.231,0,0,0,.363-5.492c-1.6-4.927-5.394-4.056-5.557-4.017a.36.36,0,0,1-.446-.329,3.449,3.449,0,0,0-1.637-2.987l-.1.016c-1.778-1.04-4.338-.166-6.486,0,0,1.77-.007,3.469,0,5.168a4.308,4.308,0,0,0,2.391,4c.2.113.419.205.684.334a3.846,3.846,0,0,1-3-.994,4.537,4.537,0,0,1-1.471-4.22,9.256,9.256,0,0,0-1.138.3,4.259,4.259,0,0,1,.662,2.274,4.312,4.312,0,0,1-4.307,4.306,4.246,4.246,0,0,1-2-.5c-.245.661-.455,1.339-.641,2.027-.161.6-.267,1.216-.4,1.824l.091.025.853-1.847c.151.81.256,1.566.438,2.3a11,11,0,0,1,.293,3.653h2.636a6.785,6.785,0,0,1,5.216-4.776,10.732,10.732,0,0,1,1.372-.149,16.173,16.173,0,0,0-.327,4.925h2.783a11.89,11.89,0,0,1,2.989-9.433c.028.042.048.064.06.056a5.683,5.683,0,0,0,4.087,4.077c.126.034.254.058.381.084a24.11,24.11,0,0,1-.261,4.649,1.8,1.8,0,0,0,1.364,1.883l.9-.919c-.685,0-.9-.811-.527-2.379.111-.472.388-1.672.639-3.218a5.014,5.014,0,0,0,1.718-.654C3851.122,55.767,3850.051,55.974,3849.741,55.991Zm-9.3-11.711a14.974,14.974,0,0,0-3.564.19v4.413a2.622,2.622,0,0,0,1.406,2.089.287.287,0,0,1-.129.544.293.293,0,0,1-.128-.03,3.159,3.159,0,0,1-1.723-2.6V44.224a.288.288,0,0,1,.24-.283,16.682,16.682,0,0,1,3.995-.227.287.287,0,0,1-.1.566Zm4.7,3.763a.851.851,0,0,1,.411-.152.306.306,0,0,1,.043,0,.662.662,0,0,1,.539.3,1.143,1.143,0,0,1,.156.563v.018c.009.133.013.266.017.4-.129,0-.258.008-.388.007h-.018a1.063,1.063,0,0,1-.556-.125.692.692,0,0,1-.324-.534.342.342,0,0,1,0-.045A.916.916,0,0,1,3845.143,48.043Zm-1.056,4.273a3.762,3.762,0,0,1,2.685,3.216A5.774,5.774,0,0,1,3844.087,52.316Z" fill="#fff"/>
        <path id="Контур_29" data-name="Контур 29" d="M3836.833,63.2c.866,0,1.7,0,2.532,0a1.411,1.411,0,0,0,.2-.025c-.033-.208-.044-.406-.07-.611h-2.774C3836.754,62.774,3836.788,62.987,3836.833,63.2Z" fill="#f18614"/>
        <path id="Контур_30" data-name="Контур 30" d="M3828.988,50.392a10.794,10.794,0,0,0-1.046,1.594,2.235,2.235,0,0,0,1.153.327,2.262,2.262,0,0,0,2.259-2.259,2.233,2.233,0,0,0-.482-1.378A8.021,8.021,0,0,0,3828.988,50.392Z" fill="#fff"/>
        <path id="Контур_31" data-name="Контур 31" d="M3844.183,45.73a5.256,5.256,0,0,1,5.1,2.571,9.513,9.513,0,0,0-.462-1.731,6.067,6.067,0,0,0-3.565-1.594.359.359,0,0,1-.317-.269,3.608,3.608,0,0,0-.951-1.633,8.264,8.264,0,0,0-1.075-.011A4.2,4.2,0,0,1,3844.183,45.73Z" fill="#f18614"/>
      </g>
    </g>
    <g id="Сгруппировать_24" data-name="Сгруппировать 24">
      <g id="Сгруппировать_23" data-name="Сгруппировать 23">
        <path id="Контур_32" data-name="Контур 32" d="M3798.868,116.574h-1.129a11.756,11.756,0,0,0-.674-2.252h-3.087a11.3,11.3,0,0,0-.663,2.252h-1.08a36.621,36.621,0,0,1,1.38-3.42,25.618,25.618,0,0,0,1.38-3.544h1.241a25.918,25.918,0,0,0,1.316,3.493A27.154,27.154,0,0,1,3798.868,116.574Zm-2.049-2.952q-1.257-3.141-1.257-3.338h-.059q0,.165-1.3,3.338Z" fill="#e37c26"/>
        <path id="Контур_33" data-name="Контур 33" d="M3803.906,111.493a9.961,9.961,0,0,1-.807,2.182,23.2,23.2,0,0,0-1.15,2.963,5.434,5.434,0,0,1-.685,1.776,1.879,1.879,0,0,1-1.524.524l-.043-.749a1.491,1.491,0,0,0,1.112-.454,1.562,1.562,0,0,0,.444-1.14,10.4,10.4,0,0,0-.984-2.824q-.984-2.231-.984-2.278h1.107a18.321,18.321,0,0,0,.674,1.946,9.96,9.96,0,0,1,.674,2.221h.054a10.311,10.311,0,0,1,.569-2.017,9.241,9.241,0,0,0,.57-2.15Z" fill="#e37c26"/>
        <path id="Контур_34" data-name="Контур 34" d="M3809.587,116.569l-.83.032a2.1,2.1,0,0,1-.074-.492h-.054a2.593,2.593,0,0,1-1.728.6,1.773,1.773,0,0,1-1.345-.447,2.734,2.734,0,0,1-.42-1.8c0-.128,0-.319.011-.572s.011-.426.011-.519q0-.786-.091-1.851l1-.037q-.064,1.032-.065,1.765a6.92,6.92,0,0,0,.217,2.2.941.941,0,0,0,.976.511,2.25,2.25,0,0,0,1.412-.428q0-2.975-.053-4.007l.963-.037q-.044,1-.043,2.781A22.846,22.846,0,0,0,3809.587,116.569Z" fill="#e37c26"/>
        <path id="Контур_35" data-name="Контур 35" d="M3814.406,111.493l-.241.85a2.119,2.119,0,0,0-.775-.166,1.249,1.249,0,0,0-1.3.958q0,2.46.032,3.439h-.947q.086-1.695.085-2.632a11.4,11.4,0,0,0-.251-2.428l.936-.134a5.732,5.732,0,0,1,.1.787h.044a1.633,1.633,0,0,1,1.348-.851A3.357,3.357,0,0,1,3814.406,111.493Z" fill="#e37c26"/>
        <path id="Контур_36" data-name="Контур 36" d="M3819.61,111.493a15.226,15.226,0,0,1-1.083,2.527,14.282,14.282,0,0,0-1.083,2.554h-.717a13.039,13.039,0,0,0-.955-2.618,18.127,18.127,0,0,1-.954-2.463h1.037a11.918,11.918,0,0,0,.7,2.038,11.964,11.964,0,0,1,.7,2.037h.048a11.714,11.714,0,0,1,.661-1.962,9.31,9.31,0,0,0,.66-2.113Z" fill="#e37c26"/>
        <path id="Контур_37" data-name="Контур 37" d="M3825.168,113.434c0,.15-.008.357-.021.621l-3.675.064a1.934,1.934,0,0,0,.6,1.308,2.028,2.028,0,0,0,1.461.527,5.66,5.66,0,0,0,1.524-.2l-.091.754a4.271,4.271,0,0,1-1.514.208,2.811,2.811,0,0,1-2.121-.759,2.574,2.574,0,0,1-.73-1.851,3.138,3.138,0,0,1,.666-2.008,2.162,2.162,0,0,1,1.79-.843,1.985,1.985,0,0,1,1.57.61A2.285,2.285,0,0,1,3825.168,113.434Zm-.893.011q0-1.5-1.257-1.5-1.284,0-1.514,1.562Z" fill="#e37c26"/>
        <path id="Контур_38" data-name="Контур 38" d="M3831.244,116.569l-.8.026a2.689,2.689,0,0,1-.043-.486h-.058a2.163,2.163,0,0,1-1.67.609,1.975,1.975,0,0,1-1.617-.738,2.724,2.724,0,0,1-.6-1.781,3.21,3.21,0,0,1,.668-2.038,2.255,2.255,0,0,1,1.883-.856,1.78,1.78,0,0,1,1.241.353h.043q0-1.326-.075-2.6l1.016-.038q-.1,1.359-.1,3.557Q3831.132,114.81,3831.244,116.569Zm-.861-1.054q0-1.664-.091-3.2a1.639,1.639,0,0,0-1.081-.358,1.581,1.581,0,0,0-1.353.6,2.462,2.462,0,0,0-.449,1.511,2.188,2.188,0,0,0,.425,1.37,1.4,1.4,0,0,0,1.18.556A1.748,1.748,0,0,0,3830.383,115.515Z" fill="#e37c26"/>
        <path id="Контур_39" data-name="Контур 39" d="M3836.908,116.574l-.839.032a2.073,2.073,0,0,1-.065-.5h-.053a2.563,2.563,0,0,1-1.792.6,1.629,1.629,0,0,1-1.059-.361,1.251,1.251,0,0,1-.444-1.03,1.557,1.557,0,0,1,.7-1.324,4.848,4.848,0,0,1,2.584-.527,2.328,2.328,0,0,0,.016-.294.959.959,0,0,0-.35-.877,2.044,2.044,0,0,0-1.062-.219,6.628,6.628,0,0,0-1.653.208l.091-.738a6.724,6.724,0,0,1,1.845-.23,2.4,2.4,0,0,1,1.471.393,1.578,1.578,0,0,1,.519,1.34q0,.252-.024.912c-.016.44-.024.734-.024.88A9.369,9.369,0,0,0,3836.908,116.574Zm-.946-1.038c-.019-.542-.027-1.028-.027-1.46a5.913,5.913,0,0,0-1.53.15,1.041,1.041,0,0,0-.877,1.022q0,.728,1.027.727A2.121,2.121,0,0,0,3835.962,115.536Z" fill="#e37c26"/>
        <path id="Контур_40" data-name="Контур 40" d="M3847.724,116.574h-1.161a1.972,1.972,0,0,0-.347-.658,5.68,5.68,0,0,0-.562-.743h-.043a3.186,3.186,0,0,1-2.739,1.556,2.154,2.154,0,0,1-1.465-.492,1.7,1.7,0,0,1-.567-1.353,2.362,2.362,0,0,1,1.6-2.4v-.037a2,2,0,0,1-.962-1.476,1.277,1.277,0,0,1,.529-1.091,2.191,2.191,0,0,1,2.49-.006,1.266,1.266,0,0,1,.522,1.081,1.392,1.392,0,0,1-.284.834,1.761,1.761,0,0,1-.781.605v.053a9.383,9.383,0,0,1,1.792,1.482h.032a3.116,3.116,0,0,0,.235-1.434h1.006a2.92,2.92,0,0,1-.268.856,3.543,3.543,0,0,1-.561.99v.042a7.747,7.747,0,0,1,.957,1.15A2.839,2.839,0,0,1,3847.724,116.574Zm-2.445-1.835v-.053q-.39-.412-.77-.76a7.182,7.182,0,0,0-1.583-1.155,1.77,1.77,0,0,0-1.128,1.738,1.419,1.419,0,0,0,.409,1.067,1.484,1.484,0,0,0,1.083.4A2.915,2.915,0,0,0,3845.279,114.739Zm-1.128-3.567a1.011,1.011,0,0,0-.265-.76.884.884,0,0,0-.639-.256.943.943,0,0,0-.61.211.683.683,0,0,0-.262.559q0,.721,1.091,1.23A1.016,1.016,0,0,0,3844.151,111.172Z" fill="#e37c26"/>
        <path id="Контур_41" data-name="Контур 41" d="M3856.587,114.45a1.8,1.8,0,0,1-.883,1.605,4.362,4.362,0,0,1-2.364.551q-.417,0-1.637-.032.077-1.657.076-3.659,0-1.882-.076-3.305h.642c.125,0,.376-.006.755-.016s.652-.016.823-.016q2.226,0,2.225,1.535a1.545,1.545,0,0,1-1.054,1.594v.053A1.585,1.585,0,0,1,3856.587,114.45Zm-1.337-3.07q0-1.107-1.493-1.107a7.471,7.471,0,0,0-1.214.08q.042.386.043,2.177c.175.008.367.011.578.011a3.64,3.64,0,0,0,1.54-.241A.942.942,0,0,0,3855.25,111.38Zm.433,3.161q0-1.315-2.332-1.315c-.285,0-.537.01-.754.032q0,1.428.059,2.551a3.588,3.588,0,0,0,.716.048,3.643,3.643,0,0,0,1.83-.337A1.073,1.073,0,0,0,3855.683,114.541Z" fill="#e37c26"/>
        <path id="Контур_42" data-name="Контур 42" d="M3862.438,113.434c0,.15-.006.357-.021.621l-3.674.064a1.929,1.929,0,0,0,.6,1.308,2.025,2.025,0,0,0,1.46.527,5.668,5.668,0,0,0,1.525-.2l-.091.754a4.279,4.279,0,0,1-1.514.208,2.809,2.809,0,0,1-2.121-.759,2.574,2.574,0,0,1-.73-1.851,3.138,3.138,0,0,1,.666-2.008,2.163,2.163,0,0,1,1.789-.843,1.983,1.983,0,0,1,1.57.61A2.279,2.279,0,0,1,3862.438,113.434Zm-.893.011q0-1.5-1.256-1.5-1.284,0-1.515,1.562Z" fill="#e37c26"/>
        <path id="Контур_43" data-name="Контур 43" d="M3868.055,111.493a9.934,9.934,0,0,1-.808,2.182,23.548,23.548,0,0,0-1.15,2.963,5.39,5.39,0,0,1-.685,1.776,1.878,1.878,0,0,1-1.524.524l-.042-.749a1.49,1.49,0,0,0,1.112-.454,1.566,1.566,0,0,0,.444-1.14,10.4,10.4,0,0,0-.984-2.824q-.985-2.231-.984-2.278h1.106a18.186,18.186,0,0,0,.675,1.946,9.953,9.953,0,0,1,.674,2.221h.053a10.33,10.33,0,0,1,.569-2.017,9.2,9.2,0,0,0,.571-2.15Z" fill="#e37c26"/>
        <path id="Контур_44" data-name="Контур 44" d="M3874.11,113.878a2.847,2.847,0,0,1-.787,2.137,2.56,2.56,0,0,1-1.85.768,2.393,2.393,0,0,1-1.709-.68,2.517,2.517,0,0,1-.714-1.914,2.884,2.884,0,0,1,.789-2.156,2.559,2.559,0,0,1,1.853-.776,2.371,2.371,0,0,1,1.707.688A2.562,2.562,0,0,1,3874.11,113.878Zm-.926.187a2.683,2.683,0,0,0-.419-1.484,1.436,1.436,0,0,0-2.38-.035,2.492,2.492,0,0,0-.415,1.429,2.676,2.676,0,0,0,.42,1.487,1.439,1.439,0,0,0,2.383.029A2.513,2.513,0,0,0,3873.184,114.065Z" fill="#e37c26"/>
        <path id="Контур_45" data-name="Контур 45" d="M3880.106,116.574h-.973q.117-1.407.117-3.07a1.489,1.489,0,0,0-.334-1.126,1.373,1.373,0,0,0-.955-.3,2.11,2.11,0,0,0-1.4.55q0,1.826.022,3.948h-.973q.09-1.818.09-2.632a12.325,12.325,0,0,0-.235-2.428l.941-.134.1.653h.043a2.488,2.488,0,0,1,1.7-.717,2.135,2.135,0,0,1,1.374.393,1.711,1.711,0,0,1,.487,1.4c0,.068,0,.2-.011.4s-.011.334-.011.4Q3880.084,114.8,3880.106,116.574Z" fill="#e37c26"/>
        <path id="Контур_46" data-name="Контур 46" d="M3886.348,116.569l-.8.026a2.689,2.689,0,0,1-.043-.486h-.058a2.163,2.163,0,0,1-1.67.609,1.975,1.975,0,0,1-1.617-.738,2.724,2.724,0,0,1-.6-1.781,3.205,3.205,0,0,1,.669-2.038,2.252,2.252,0,0,1,1.883-.856,1.779,1.779,0,0,1,1.24.353h.043q0-1.326-.075-2.6l1.017-.038q-.1,1.359-.1,3.557Q3886.236,114.81,3886.348,116.569Zm-.861-1.054q0-1.664-.091-3.2a1.639,1.639,0,0,0-1.081-.358,1.581,1.581,0,0,0-1.353.6,2.462,2.462,0,0,0-.449,1.511,2.188,2.188,0,0,0,.425,1.37,1.4,1.4,0,0,0,1.18.556A1.748,1.748,0,0,0,3885.487,115.515Z" fill="#e37c26"/>
      </g>
    </g>
  </g>
</svg>
