<svg xmlns="http://www.w3.org/2000/svg" width="13.361" height="19.154" viewBox="0 0 13.361 19.154">
  <g id="map-pin" transform="translate(-3119.457 -57.695)">
    <path id="Контур_1" data-name="Контур 1" d="M3126.7,57.695c.329.061.663.1.984.186a6.513,6.513,0,0,1,4.994,5.224,6.377,6.377,0,0,1-.835,4.718q-2.576,4.331-5.163,8.655a.58.58,0,0,1-1.083,0c-1.752-2.938-3.54-5.855-5.246-8.82a6.657,6.657,0,0,1,4.476-9.837c.249-.051.5-.083.752-.123Zm-.555,17.459,1.355-2.273q1.683-2.82,3.364-5.64a5.39,5.39,0,0,0,.681-4.038A5.532,5.532,0,0,0,3120.6,64.27a5.6,5.6,0,0,0,.814,2.982q2.307,3.861,4.608,7.724C3126.055,75.028,3126.09,75.077,3126.141,75.154Z" fill="#2a6b2c"/>
    <path id="Контур_2" data-name="Контур 2" d="M3122.838,64.312a3.3,3.3,0,1,1,3.3,3.3A3.285,3.285,0,0,1,3122.838,64.312Zm1.131.008a2.165,2.165,0,1,0,2.157-2.172A2.185,2.185,0,0,0,3123.969,64.32Z" fill="#2a6b2c"/>
  </g>
</svg>
