<svg xmlns="http://www.w3.org/2000/svg" width="131.016" height="131.334" viewBox="0 0 131.016 131.334">
  <g id="uzor-mini" transform="translate(-3119.457 -1761.456)" opacity="0.15">
    <path id="Контур_57" data-name="Контур 57" d="M3183.9,1862.292c-2.781,0-5.562.149-8.314.389,0-5.2.18-10.408.568-15.612.3-4.157.718-8.284,1.316-12.442a11.86,11.86,0,0,0-.209-4.725c.03,0,.03-.03.03-.06-.03,0-.03,0-.03-.03h-.03a12.8,12.8,0,0,0-4.785-.179c-4.157.6-8.284,1.017-12.441,1.316-5.2.389-10.408.568-15.582.568.239-2.751.388-5.533.388-8.314a87.728,87.728,0,0,0-25.352-61.747V1791.9a69.635,69.635,0,0,1,7.408,31.306,71.647,71.647,0,0,1-.508,8.015q-3.456-.147-6.9-.316v18.057c7.777.33,15.533.519,23.289.413,3.26-.03,6.52-.12,9.75-.24,1.914-.089,3.828-.179,5.712-.3l.06-.03a.11.11,0,0,0-.03.09c-.12,1.914-.209,3.8-.3,5.712-.12,3.23-.209,6.49-.239,9.75-.1,9.441.189,18.909.677,28.435h18.069c-.2-4.016-.391-8.031-.563-12.045a71.675,71.675,0,0,1,8.015-.509,69.661,69.661,0,0,1,39.954,12.554h26.621A87.843,87.843,0,0,0,3183.9,1862.292Z" fill="#fff"/>
    <path id="Контур_58" data-name="Контур 58" d="M3125.7,1881.4c-2.074-.042-4.16-.056-6.242-.07v11.457h6.333c0-.8,0-1.591,0-2.385C3125.758,1887.414,3125.758,1884.393,3125.7,1881.4Z" fill="#fff"/>
    <path id="Контур_59" data-name="Контур 59" d="M3149.176,1866.539a44.812,44.812,0,0,1,.3-8.285,7.022,7.022,0,0,1,.15-.777,7.367,7.367,0,0,1-.778.149,45.065,45.065,0,0,1-8.314.3c-2-.09-4.008-.239-5.952-.3-5.053-.182-10.09-.459-15.124-.768v8.961c6.487.4,12.974.742,19.461.9.478,0,.957.03,1.435.03,0,.479.03.927.03,1.406.2,8.226.685,16.432,1.2,24.636h8.984c-.436-6.757-.851-13.514-1.1-20.27C3149.415,1870.576,3149.266,1868.572,3149.176,1866.539Z" fill="#fff"/>
    <path id="Контур_60" data-name="Контур 60" d="M3196.37,1801.46c-4.367.18-9.032.778-12.771,3.2a15.457,15.457,0,0,0-7.088,12.262,5.6,5.6,0,0,0,0,.987,11.05,11.05,0,0,0,12.651,12.681,5.75,5.75,0,0,0,1.017,0,15.431,15.431,0,0,0,12.232-7.088c2.452-3.739,3.051-8.4,3.23-12.77v-.419c.12-2.991.12-5.982.12-8.972-2.991,0-5.982,0-8.973.119Z" fill="#fff"/>
  </g>
</svg>
