<svg xmlns="http://www.w3.org/2000/svg" width="257.982" height="245.557" viewBox="0 0 257.982 245.557">
  <g id="uzor-big" transform="translate(-4301.475 -1647.232)" opacity="0.15">
    <path id="Контур_61" data-name="Контур 61" d="M4446.526,1822.762a71.576,71.576,0,0,1,.508-8.015c4.9.209,9.78.448,14.714.718a59.469,59.469,0,0,0-.508,7.3,55.325,55.325,0,0,0,97.737,35.56l.03.03c.151.173.3.354.45.529v-26.034c-1.1-1.084-2.195-2.172-3.321-3.236-6.7-6.311-13.578-12.442-20.008-19.021-2.213-2.273-4.277-4.666-6.31-7.058-1.975-2.333-3.53-4.7-6.67-5.563-2.572-.688-5.653.03-8.254.239-2.452.18-4.905.329-7.358.419-4.905.179-9.809.209-14.714.12-9.839-.15-19.649-.748-29.459-1.287-10.946-.6-21.832-1.016-32.718-.867-3.26.03-6.52.12-9.75.239-1.914.09-3.828.18-5.712.3l-.06.03a.114.114,0,0,0,.029-.09c.12-1.914.21-3.8.3-5.713.119-3.23.209-6.489.239-9.749.12-10.857-.269-21.743-.9-32.719-.538-9.81-1.137-19.619-1.286-29.429-.09-4.9-.06-9.809.12-14.714.119-2.453.239-4.905.418-7.357.21-2.632.927-5.713.239-8.285-.867-3.11-3.23-4.695-5.532-6.639-2.423-2.064-4.815-4.127-7.088-6.34-6.58-6.431-12.711-13.309-19.021-20.008q-4.329-4.593-8.9-8.887h-27.291c.759.574,1.52,1.144,2.271,1.739q2.691,2.108,5.2,4.307a55.324,55.324,0,0,0,35.559,97.736,59.9,59.9,0,0,0,7.327-.508c.24,4.905.479,9.81.688,14.714a71.608,71.608,0,0,1-8.015.509,70.15,70.15,0,0,1-70.072-70.073,69.322,69.322,0,0,1,19.529-48.424H4316a88.005,88.005,0,0,0,73.489,136.441c2.782,0,5.563-.149,8.315-.389,0,5.174-.18,10.408-.569,15.612-.3,4.157-.717,8.284-1.316,12.441a11.891,11.891,0,0,0,.21,4.726c-.03,0-.03.03-.03.06.03,0,.03,0,.03.03h.03a12.8,12.8,0,0,0,4.785.179c4.157-.6,8.284-1.017,12.441-1.316,5.2-.389,10.378-.568,15.582-.568-.239,2.751-.389,5.533-.389,8.314a87.92,87.92,0,0,0,34.756,70.027h51.477A70.137,70.137,0,0,1,4446.526,1822.762Zm27.215-6.7c6.579.329,13.129.6,19.709.658h.06a23.9,23.9,0,0,0,43.1,19.171c4.755,4.456,9.541,8.942,14.117,13.577a43.342,43.342,0,0,1-77.52-26.707A41.816,41.816,0,0,1,4473.741,1816.063Zm-84.249-77.011a43.342,43.342,0,0,1-26.707-77.52c4.636,4.576,9.122,9.361,13.578,14.116a23.93,23.93,0,0,0,13.129,43.934,22.573,22.573,0,0,0,6.072-.867v.089c.059,6.58.3,13.13.628,19.709A41.879,41.879,0,0,1,4389.492,1739.052Z" fill="#fff"/>
    <path id="Контур_62" data-name="Контур 62" d="M4559.457,1892.789v-14.637a69.333,69.333,0,0,1-41.108,14.637Z" fill="#fff"/>
    <path id="Контур_63" data-name="Контур 63" d="M4541.661,1791.778a167.6,167.6,0,0,1-20.876-27.754,149.252,149.252,0,0,0,17.885-2.362,191.332,191.332,0,0,0,20.787,24.975v-13.071a151.83,151.83,0,0,1-11.4-14.148,98.8,98.8,0,0,0,11.4-4.015v-9.546a88.134,88.134,0,0,1-16.48,5.756c-12.412-21.145-17.945-47.852.807-67.322a81.612,81.612,0,0,1,15.673-12.479v-10.22c-19.248,11.128-35.825,26.444-37.056,50.423-.749,14.8,3.887,28.771,11.214,41.512a195.8,195.8,0,0,1-30.923,2.183h-.031c-.03-.12-.059-.269-.089-.389-2.812-10.109-2.722-20.546-2.094-30.984.269-4.486.658-9,.927-13.488-4.485.3-8.972.688-13.488.957-10.408.628-20.845.688-30.954-2.123-.149-.03-.269-.06-.418-.09v-.03a195.491,195.491,0,0,1,2.212-30.894c12.741,7.3,26.708,11.963,41.482,11.185,26.272-1.35,42.167-21.116,53.517-42.622h-10.022a88.382,88.382,0,0,1-15.741,21.238c-19.5,18.752-46.207,13.249-67.351.808a82.488,82.488,0,0,1,8.672-22.046h-9.872a95.9,95.9,0,0,0-6.606,16.991,168.378,168.378,0,0,1-20.089-16.991H4420.03c1.082,1.1,2.16,2.206,3.257,3.294a196.38,196.38,0,0,0,27.306,23.058,149.639,149.639,0,0,0-2.363,17.855,166.318,166.318,0,0,1-27.754-20.845c-8.1-7.385-15.639-15.4-23.244-23.362h-12.726q5.874,5.874,11.626,11.877a305.816,305.816,0,0,0,27.365,25.84,4.5,4.5,0,0,0-.269,1.017c-2.842,19.2-2.213,38.491-1.017,57.781.628,9.9,1.346,19.8,1.705,29.7.059,1.944.209,3.948.3,5.981a44.9,44.9,0,0,1-.3,8.285,7.033,7.033,0,0,1-.15.777,7.333,7.333,0,0,1,.778-.149,45.062,45.062,0,0,1,8.314-.3c2,.089,4.007.239,5.951.3,9.929.359,19.8,1.076,29.7,1.7,19.32,1.2,38.581,1.825,57.781-1.016a4.562,4.562,0,0,0,1.017-.27,298.051,298.051,0,0,0,25.84,27.4q3.172,3.027,6.312,6.094V1809.7C4553.36,1803.867,4547.321,1797.983,4541.661,1791.778Zm-77.011-66.962a133.658,133.658,0,0,0,22.43.358,133.526,133.526,0,0,0,.359,22.431c-7.627.3-15.283.3-22.91.12C4464.35,1740.1,4464.35,1732.442,4464.65,1724.816Zm-.479,55.986c-9.9-.658-19.8-1.316-29.7-1.555-.479,0-.957-.03-1.436-.03,0-.478-.03-.927-.03-1.406-.239-9.929-.9-19.828-1.525-29.727-1.226-18.9-2.422-38.043.03-56.914a147.211,147.211,0,0,0,16.21,10.318c-.12,3.679-.15,7.327-.15,10.946.06,14.385-.03,28.771.03,43.126.03,2.991.03,6.012.09,9,2.991.06,6.011.06,9,.09,14.385.06,28.771-.03,43.126.03,3.649.03,7.3,0,10.946-.12a151.863,151.863,0,0,0,10.318,16.21C4502.213,1783.195,4483.072,1782,4464.171,1780.8Z" fill="#fff"/>
    <path id="Контур_64" data-name="Контур 64" d="M4478.372,1656.444a4.922,4.922,0,0,0-1.842,3.63c0,2.625,2.08,4.206,4.486,4.486,17.148,2,35.089-4.077,46.225-17.328h-38.315a69.844,69.844,0,0,0-9.772,8.151A4.758,4.758,0,0,0,4478.372,1656.444Z" fill="#fff"/>
    <path id="Контур_65" data-name="Контур 65" d="M4547.694,1731.238c.281,2.407,1.862,4.487,4.487,4.487a4.92,4.92,0,0,0,3.629-1.842,4.739,4.739,0,0,0,1.061-.783c.88-.875,1.741-1.788,2.586-2.727v-39.786C4550.116,1701.635,4546,1716.716,4547.694,1731.238Z" fill="#fff"/>
    <path id="Контур_66" data-name="Контур 66" d="M4384.228,1815.368a5.945,5.945,0,0,0-1.017,0,15.435,15.435,0,0,0-12.232,7.088c-2.453,3.739-3.051,8.4-3.23,12.771v.418c-.119,2.991-.119,5.982-.119,8.973,2.99,0,5.981,0,8.972-.12h.418c4.367-.179,9.032-.777,12.771-3.2a15.455,15.455,0,0,0,7.088-12.262,5.375,5.375,0,0,0,0-.987,11.05,11.05,0,0,0-12.651-12.681Z" fill="#fff"/>
  </g>
</svg>
