<svg xmlns="http://www.w3.org/2000/svg" width="20.743" height="17.921" viewBox="0 0 20.743 17.921">
  <g id="Сгруппировать_12" data-name="Сгруппировать 12" transform="translate(-4538.714 -162.186)">
    <path id="Контур_3" data-name="Контур 3" d="M4559.457,162.821l-3.281,16.54a1.215,1.215,0,0,1-1.721.6l-7.57-5.8-2.753-1.331-4.634-1.56s-.711-.252-.78-.8.8-.849.8-.849l18.422-7.226S4559.457,161.72,4559.457,162.821Z" fill="#2a7d5a"/>
    <path id="Контур_4" data-name="Контур 4" d="M4546.3,179.176s-.221-.021-.5-.893-1.675-5.46-1.675-5.46l11.126-7.066s.643-.39.62,0c0,0,.115.069-.23.39s-8.74,7.869-8.74,7.869" fill="#fff"/>
    <path id="Контур_5" data-name="Контур 5" d="M4549.788,176.379l-3,2.73a.524.524,0,0,1-.49.067l.573-5.072" fill="#144246"/>
  </g>
</svg>
